ISO-10303-21;
HEADER;
/* Generated by software containing ST-Developer
 * from STEP Tools, Inc. (www.steptools.com) 
 */
/* OPTION: using custom renumber hook */

FILE_DESCRIPTION(
/* description */ ('STEP AP242 Edition 2',
'CAx-IF Rec.Pracs.---Representation and Presentation of Product Manufa
cturing Information (PMI)---4.0---2014-10-13',
'CAx-IF Rec.Pracs.---3D Tessellated Geometry---0.4---2014-09-14','2;1',
'CAx-IF Rec.Pracs.---User Defined Attributes---1.5---2016-08-15'),
/* implementation_level */ '2;1');

FILE_NAME(
/* name */ 'Assembly 1 - Part 1',
/* time_stamp */ '2026-05-21T02:13:30Z',
/* author */ (''),
/* organization */ (''),
/* preprocessor_version */ 'ST-DEVELOPER v20',
/* originating_system */ 'ONSHAPE BY PTC INC, 1.215',
/* authorisation */ '  ');

FILE_SCHEMA (('AP242_MANAGED_MODEL_BASED_3D_ENGINEERING_MIM_LF { 1 0 10303 442 3 1 4 }'));
ENDSEC;

DATA;
#10=SHAPE_REPRESENTATION_RELATIONSHIP('','',#235,#11);
#11=ADVANCED_BREP_SHAPE_REPRESENTATION('',(#233),#389);
#12=PLANE('',#240);
#13=PLANE('',#247);
#14=PLANE('',#254);
#15=PLANE('',#255);
#16=PLANE('',#259);
#17=PLANE('',#260);
#18=LINE('',#332,#34);
#19=LINE('',#336,#35);
#20=LINE('',#338,#36);
#21=LINE('',#340,#37);
#22=LINE('',#342,#38);
#23=LINE('',#346,#39);
#24=LINE('',#353,#40);
#25=LINE('',#357,#41);
#26=LINE('',#359,#42);
#27=LINE('',#361,#43);
#28=LINE('',#363,#44);
#29=LINE('',#367,#45);
#30=LINE('',#376,#46);
#31=LINE('',#377,#47);
#32=LINE('',#379,#48);
#33=LINE('',#380,#49);
#34=VECTOR('',#267,1.);
#35=VECTOR('',#270,1.);
#36=VECTOR('',#273,1.);
#37=VECTOR('',#274,1.);
#38=VECTOR('',#275,1.);
#39=VECTOR('',#280,1.);
#40=VECTOR('',#287,1.);
#41=VECTOR('',#290,1.);
#42=VECTOR('',#293,1.);
#43=VECTOR('',#294,1.);
#44=VECTOR('',#295,1.);
#45=VECTOR('',#300,1.);
#46=VECTOR('',#311,1.);
#47=VECTOR('',#312,1.);
#48=VECTOR('',#315,1.);
#49=VECTOR('',#316,1.);
#50=ORIENTED_EDGE('',*,*,#106,.T.);
#51=ORIENTED_EDGE('',*,*,#107,.F.);
#52=ORIENTED_EDGE('',*,*,#108,.F.);
#53=ORIENTED_EDGE('',*,*,#109,.T.);
#54=ORIENTED_EDGE('',*,*,#110,.T.);
#55=ORIENTED_EDGE('',*,*,#111,.F.);
#56=ORIENTED_EDGE('',*,*,#112,.F.);
#57=ORIENTED_EDGE('',*,*,#107,.T.);
#58=ORIENTED_EDGE('',*,*,#113,.T.);
#59=ORIENTED_EDGE('',*,*,#114,.F.);
#60=ORIENTED_EDGE('',*,*,#115,.F.);
#61=ORIENTED_EDGE('',*,*,#111,.T.);
#62=ORIENTED_EDGE('',*,*,#116,.F.);
#63=ORIENTED_EDGE('',*,*,#117,.F.);
#64=ORIENTED_EDGE('',*,*,#118,.T.);
#65=ORIENTED_EDGE('',*,*,#119,.T.);
#66=ORIENTED_EDGE('',*,*,#120,.F.);
#67=ORIENTED_EDGE('',*,*,#121,.F.);
#68=ORIENTED_EDGE('',*,*,#122,.T.);
#69=ORIENTED_EDGE('',*,*,#117,.T.);
#70=ORIENTED_EDGE('',*,*,#123,.F.);
#71=ORIENTED_EDGE('',*,*,#124,.F.);
#72=ORIENTED_EDGE('',*,*,#125,.T.);
#73=ORIENTED_EDGE('',*,*,#121,.T.);
#74=ORIENTED_EDGE('',*,*,#126,.T.);
#75=ORIENTED_EDGE('',*,*,#127,.F.);
#76=ORIENTED_EDGE('',*,*,#128,.F.);
#77=ORIENTED_EDGE('',*,*,#109,.F.);
#78=ORIENTED_EDGE('',*,*,#129,.T.);
#79=ORIENTED_EDGE('',*,*,#114,.T.);
#80=ORIENTED_EDGE('',*,*,#130,.T.);
#81=ORIENTED_EDGE('',*,*,#119,.F.);
#82=ORIENTED_EDGE('',*,*,#131,.F.);
#83=ORIENTED_EDGE('',*,*,#124,.T.);
#84=ORIENTED_EDGE('',*,*,#132,.T.);
#85=ORIENTED_EDGE('',*,*,#133,.F.);
#86=ORIENTED_EDGE('',*,*,#118,.F.);
#87=ORIENTED_EDGE('',*,*,#122,.F.);
#88=ORIENTED_EDGE('',*,*,#125,.F.);
#89=ORIENTED_EDGE('',*,*,#131,.T.);
#90=ORIENTED_EDGE('',*,*,#108,.T.);
#91=ORIENTED_EDGE('',*,*,#112,.T.);
#92=ORIENTED_EDGE('',*,*,#115,.T.);
#93=ORIENTED_EDGE('',*,*,#129,.F.);
#94=ORIENTED_EDGE('',*,*,#126,.F.);
#95=ORIENTED_EDGE('',*,*,#132,.F.);
#96=ORIENTED_EDGE('',*,*,#116,.T.);
#97=ORIENTED_EDGE('',*,*,#130,.F.);
#98=ORIENTED_EDGE('',*,*,#123,.T.);
#99=ORIENTED_EDGE('',*,*,#120,.T.);
#100=ORIENTED_EDGE('',*,*,#106,.F.);
#101=ORIENTED_EDGE('',*,*,#128,.T.);
#102=ORIENTED_EDGE('',*,*,#113,.F.);
#103=ORIENTED_EDGE('',*,*,#110,.F.);
#104=ORIENTED_EDGE('',*,*,#127,.T.);
#105=ORIENTED_EDGE('',*,*,#133,.T.);
#106=EDGE_CURVE('',#134,#135,#154,.T.);
#107=EDGE_CURVE('',#136,#135,#18,.T.);
#108=EDGE_CURVE('',#137,#136,#155,.T.);
#109=EDGE_CURVE('',#137,#134,#19,.T.);
#110=EDGE_CURVE('',#135,#138,#20,.T.);
#111=EDGE_CURVE('',#139,#138,#21,.T.);
#112=EDGE_CURVE('',#136,#139,#22,.T.);
#113=EDGE_CURVE('',#138,#140,#156,.T.);
#114=EDGE_CURVE('',#141,#140,#23,.T.);
#115=EDGE_CURVE('',#139,#141,#157,.T.);
#116=EDGE_CURVE('',#142,#143,#158,.T.);
#117=EDGE_CURVE('',#144,#142,#24,.T.);
#118=EDGE_CURVE('',#144,#145,#159,.T.);
#119=EDGE_CURVE('',#145,#143,#25,.T.);
#120=EDGE_CURVE('',#146,#142,#26,.T.);
#121=EDGE_CURVE('',#147,#146,#27,.T.);
#122=EDGE_CURVE('',#147,#144,#28,.T.);
#123=EDGE_CURVE('',#148,#146,#160,.T.);
#124=EDGE_CURVE('',#149,#148,#29,.T.);
#125=EDGE_CURVE('',#149,#147,#161,.T.);
#126=EDGE_CURVE('',#150,#150,#162,.T.);
#127=EDGE_CURVE('',#151,#151,#163,.T.);
#128=EDGE_CURVE('',#134,#140,#30,.T.);
#129=EDGE_CURVE('',#137,#141,#31,.T.);
#130=EDGE_CURVE('',#148,#143,#32,.T.);
#131=EDGE_CURVE('',#149,#145,#33,.T.);
#132=EDGE_CURVE('',#152,#152,#164,.T.);
#133=EDGE_CURVE('',#153,#153,#165,.T.);
#134=VERTEX_POINT('',#330);
#135=VERTEX_POINT('',#331);
#136=VERTEX_POINT('',#333);
#137=VERTEX_POINT('',#335);
#138=VERTEX_POINT('',#339);
#139=VERTEX_POINT('',#341);
#140=VERTEX_POINT('',#345);
#141=VERTEX_POINT('',#347);
#142=VERTEX_POINT('',#351);
#143=VERTEX_POINT('',#352);
#144=VERTEX_POINT('',#354);
#145=VERTEX_POINT('',#356);
#146=VERTEX_POINT('',#360);
#147=VERTEX_POINT('',#362);
#148=VERTEX_POINT('',#366);
#149=VERTEX_POINT('',#368);
#150=VERTEX_POINT('',#372);
#151=VERTEX_POINT('',#374);
#152=VERTEX_POINT('',#383);
#153=VERTEX_POINT('',#385);
#154=CIRCLE('',#238,0.003);
#155=CIRCLE('',#239,0.003);
#156=CIRCLE('',#242,0.003);
#157=CIRCLE('',#243,0.003);
#158=CIRCLE('',#245,0.001);
#159=CIRCLE('',#246,0.001);
#160=CIRCLE('',#249,0.001);
#161=CIRCLE('',#250,0.001);
#162=CIRCLE('',#252,0.001);
#163=CIRCLE('',#253,0.001);
#164=CIRCLE('',#257,0.001);
#165=CIRCLE('',#258,0.001);
#166=EDGE_LOOP('',(#50,#51,#52,#53));
#167=EDGE_LOOP('',(#54,#55,#56,#57));
#168=EDGE_LOOP('',(#58,#59,#60,#61));
#169=EDGE_LOOP('',(#62,#63,#64,#65));
#170=EDGE_LOOP('',(#66,#67,#68,#69));
#171=EDGE_LOOP('',(#70,#71,#72,#73));
#172=EDGE_LOOP('',(#74));
#173=EDGE_LOOP('',(#75));
#174=EDGE_LOOP('',(#76,#77,#78,#79));
#175=EDGE_LOOP('',(#80,#81,#82,#83));
#176=EDGE_LOOP('',(#84));
#177=EDGE_LOOP('',(#85));
#178=EDGE_LOOP('',(#86,#87,#88,#89));
#179=EDGE_LOOP('',(#90,#91,#92,#93));
#180=EDGE_LOOP('',(#94));
#181=EDGE_LOOP('',(#95));
#182=EDGE_LOOP('',(#96,#97,#98,#99));
#183=EDGE_LOOP('',(#100,#101,#102,#103));
#184=EDGE_LOOP('',(#104));
#185=EDGE_LOOP('',(#105));
#186=FACE_BOUND('',#166,.T.);
#187=FACE_BOUND('',#167,.T.);
#188=FACE_BOUND('',#168,.T.);
#189=FACE_BOUND('',#169,.T.);
#190=FACE_BOUND('',#170,.T.);
#191=FACE_BOUND('',#171,.T.);
#192=FACE_BOUND('',#172,.T.);
#193=FACE_BOUND('',#173,.T.);
#194=FACE_BOUND('',#174,.T.);
#195=FACE_BOUND('',#175,.T.);
#196=FACE_BOUND('',#176,.T.);
#197=FACE_BOUND('',#177,.T.);
#198=FACE_BOUND('',#178,.T.);
#199=FACE_BOUND('',#179,.T.);
#200=FACE_BOUND('',#180,.T.);
#201=FACE_BOUND('',#181,.T.);
#202=FACE_BOUND('',#182,.T.);
#203=FACE_BOUND('',#183,.T.);
#204=FACE_BOUND('',#184,.T.);
#205=FACE_BOUND('',#185,.T.);
#206=CYLINDRICAL_SURFACE('',#237,0.003);
#207=CYLINDRICAL_SURFACE('',#241,0.003);
#208=CYLINDRICAL_SURFACE('',#244,0.001);
#209=CYLINDRICAL_SURFACE('',#248,0.001);
#210=CYLINDRICAL_SURFACE('',#251,0.001);
#211=CYLINDRICAL_SURFACE('',#256,0.001);
#212=ADVANCED_FACE('',(#186),#206,.T.);
#213=ADVANCED_FACE('',(#187),#12,.F.);
#214=ADVANCED_FACE('',(#188),#207,.T.);
#215=ADVANCED_FACE('',(#189),#208,.F.);
#216=ADVANCED_FACE('',(#190),#13,.T.);
#217=ADVANCED_FACE('',(#191),#209,.F.);
#218=ADVANCED_FACE('',(#192,#193),#210,.F.);
#219=ADVANCED_FACE('',(#194),#14,.T.);
#220=ADVANCED_FACE('',(#195),#15,.F.);
#221=ADVANCED_FACE('',(#196,#197),#211,.F.);
#222=ADVANCED_FACE('',(#198,#199,#200,#201),#16,.T.);
#223=ADVANCED_FACE('',(#202,#203,#204,#205),#17,.F.);
#224=CLOSED_SHELL('',(#212,#213,#214,#215,#216,#217,#218,#219,#220,#221,
#222,#223));
#225=STYLED_ITEM('',(#226),#233);
#226=PRESENTATION_STYLE_ASSIGNMENT((#227));
#227=SURFACE_STYLE_USAGE(.BOTH.,#228);
#228=SURFACE_SIDE_STYLE('',(#229));
#229=SURFACE_STYLE_FILL_AREA(#230);
#230=FILL_AREA_STYLE('',(#231));
#231=FILL_AREA_STYLE_COLOUR('',#232);
#232=COLOUR_RGB('',0.615686274509804,0.811764705882353,0.929411764705882);
#233=MANIFOLD_SOLID_BREP('Part 1',#224);
#234=SHAPE_DEFINITION_REPRESENTATION(#394,#235);
#235=SHAPE_REPRESENTATION('Part 1',(#236),#389);
#236=AXIS2_PLACEMENT_3D('',#327,#261,#262);
#237=AXIS2_PLACEMENT_3D('',#328,#263,#264);
#238=AXIS2_PLACEMENT_3D('',#329,#265,#266);
#239=AXIS2_PLACEMENT_3D('',#334,#268,#269);
#240=AXIS2_PLACEMENT_3D('',#337,#271,#272);
#241=AXIS2_PLACEMENT_3D('',#343,#276,#277);
#242=AXIS2_PLACEMENT_3D('',#344,#278,#279);
#243=AXIS2_PLACEMENT_3D('',#348,#281,#282);
#244=AXIS2_PLACEMENT_3D('',#349,#283,#284);
#245=AXIS2_PLACEMENT_3D('',#350,#285,#286);
#246=AXIS2_PLACEMENT_3D('',#355,#288,#289);
#247=AXIS2_PLACEMENT_3D('',#358,#291,#292);
#248=AXIS2_PLACEMENT_3D('',#364,#296,#297);
#249=AXIS2_PLACEMENT_3D('',#365,#298,#299);
#250=AXIS2_PLACEMENT_3D('',#369,#301,#302);
#251=AXIS2_PLACEMENT_3D('',#370,#303,#304);
#252=AXIS2_PLACEMENT_3D('',#371,#305,#306);
#253=AXIS2_PLACEMENT_3D('',#373,#307,#308);
#254=AXIS2_PLACEMENT_3D('',#375,#309,#310);
#255=AXIS2_PLACEMENT_3D('',#378,#313,#314);
#256=AXIS2_PLACEMENT_3D('',#381,#317,#318);
#257=AXIS2_PLACEMENT_3D('',#382,#319,#320);
#258=AXIS2_PLACEMENT_3D('',#384,#321,#322);
#259=AXIS2_PLACEMENT_3D('',#386,#323,#324);
#260=AXIS2_PLACEMENT_3D('',#387,#325,#326);
#261=DIRECTION('',(0.,0.,1.));
#262=DIRECTION('',(1.,0.,0.));
#263=DIRECTION('',(0.,0.,-1.));
#264=DIRECTION('',(-1.,0.,0.));
#265=DIRECTION('',(0.,0.,1.));
#266=DIRECTION('',(1.,0.,0.));
#267=DIRECTION('',(0.,0.,-1.));
#268=DIRECTION('',(0.,0.,1.));
#269=DIRECTION('',(1.,0.,0.));
#270=DIRECTION('',(0.,0.,-1.));
#271=DIRECTION('',(1.,8.67361737988404E-17,0.));
#272=DIRECTION('',(-8.67361737988404E-17,1.,0.));
#273=DIRECTION('',(8.67361737988404E-17,-1.,0.));
#274=DIRECTION('',(0.,0.,-1.));
#275=DIRECTION('',(8.67361737988404E-17,-1.,0.));
#276=DIRECTION('',(0.,0.,-1.));
#277=DIRECTION('',(-1.,0.,0.));
#278=DIRECTION('',(0.,0.,1.));
#279=DIRECTION('',(1.,0.,0.));
#280=DIRECTION('',(0.,0.,-1.));
#281=DIRECTION('',(0.,0.,1.));
#282=DIRECTION('',(1.,0.,0.));
#283=DIRECTION('',(0.,0.,-1.));
#284=DIRECTION('',(-1.,0.,0.));
#285=DIRECTION('',(0.,0.,1.));
#286=DIRECTION('',(1.,0.,0.));
#287=DIRECTION('',(0.,0.,-1.));
#288=DIRECTION('',(0.,0.,1.));
#289=DIRECTION('',(1.,0.,0.));
#290=DIRECTION('',(0.,0.,-1.));
#291=DIRECTION('',(-1.,0.,0.));
#292=DIRECTION('',(0.,0.,1.));
#293=DIRECTION('',(0.,1.,0.));
#294=DIRECTION('',(0.,0.,-1.));
#295=DIRECTION('',(0.,1.,0.));
#296=DIRECTION('',(0.,0.,-1.));
#297=DIRECTION('',(-1.,0.,0.));
#298=DIRECTION('',(0.,0.,1.));
#299=DIRECTION('',(1.,0.,0.));
#300=DIRECTION('',(0.,0.,-1.));
#301=DIRECTION('',(0.,0.,1.));
#302=DIRECTION('',(1.,0.,0.));
#303=DIRECTION('',(0.,0.,-1.));
#304=DIRECTION('',(-1.,0.,0.));
#305=DIRECTION('',(0.,0.,1.));
#306=DIRECTION('',(1.,0.,0.));
#307=DIRECTION('',(0.,0.,1.));
#308=DIRECTION('',(1.,0.,0.));
#309=DIRECTION('',(1.,8.67361737988404E-17,0.));
#310=DIRECTION('',(-8.67361737988404E-17,1.,0.));
#311=DIRECTION('',(8.67361737988404E-17,-1.,0.));
#312=DIRECTION('',(8.67361737988404E-17,-1.,0.));
#313=DIRECTION('',(-0.99999966229943,-0.000821827856373021,0.));
#314=DIRECTION('',(0.000821827856373021,-0.99999966229943,0.));
#315=DIRECTION('',(-0.000821827856373021,0.99999966229943,0.));
#316=DIRECTION('',(-0.000821827856373021,0.99999966229943,0.));
#317=DIRECTION('',(0.,0.,-1.));
#318=DIRECTION('',(-1.,0.,0.));
#319=DIRECTION('',(0.,0.,1.));
#320=DIRECTION('',(1.,0.,0.));
#321=DIRECTION('',(0.,0.,1.));
#322=DIRECTION('',(1.,0.,0.));
#323=DIRECTION('',(0.,0.,1.));
#324=DIRECTION('',(1.,0.,0.));
#325=DIRECTION('',(0.,0.,1.));
#326=DIRECTION('',(1.,0.,0.));
#327=CARTESIAN_POINT('',(0.,0.,0.));
#328=CARTESIAN_POINT('',(0.,0.005,0.002));
#329=CARTESIAN_POINT('',(0.,0.005,0.));
#330=CARTESIAN_POINT('',(0.003,0.005,0.));
#331=CARTESIAN_POINT('',(-0.003,0.005,0.));
#332=CARTESIAN_POINT('',(-0.003,0.005,0.002));
#333=CARTESIAN_POINT('',(-0.003,0.005,0.002));
#334=CARTESIAN_POINT('',(0.,0.005,0.002));
#335=CARTESIAN_POINT('',(0.003,0.005,0.002));
#336=CARTESIAN_POINT('',(0.003,0.005,0.002));
#337=CARTESIAN_POINT('',(-0.003,0.,0.002));
#338=CARTESIAN_POINT('',(-0.003,0.,0.));
#339=CARTESIAN_POINT('',(-0.003,-0.005,0.));
#340=CARTESIAN_POINT('',(-0.003,-0.005,0.002));
#341=CARTESIAN_POINT('',(-0.003,-0.005,0.002));
#342=CARTESIAN_POINT('',(-0.003,0.,0.002));
#343=CARTESIAN_POINT('',(4.33680868994202E-19,-0.005,0.002));
#344=CARTESIAN_POINT('',(4.33680868994202E-19,-0.005,0.));
#345=CARTESIAN_POINT('',(0.003,-0.005,0.));
#346=CARTESIAN_POINT('',(0.003,-0.005,0.002));
#347=CARTESIAN_POINT('',(0.003,-0.005,0.002));
#348=CARTESIAN_POINT('',(4.33680868994202E-19,-0.005,0.002));
#349=CARTESIAN_POINT('',(3.06161699786839E-20,0.001,0.002));
#350=CARTESIAN_POINT('',(3.06161699786839E-20,0.001,0.));
#351=CARTESIAN_POINT('',(0.000998077807549429,0.000938026698673348,0.));
#352=CARTESIAN_POINT('',(-0.00099999966229943,0.000999178172143627,0.));
#353=CARTESIAN_POINT('',(0.000998077807549429,0.000938026698673348,0.002));
#354=CARTESIAN_POINT('',(0.000998077807549429,0.000938026698673348,0.002));
#355=CARTESIAN_POINT('',(3.06161699786839E-20,0.001,0.002));
#356=CARTESIAN_POINT('',(-0.00099999966229943,0.000999178172143627,0.002));
#357=CARTESIAN_POINT('',(-0.00099999966229943,0.000999178172143627,0.002));
#358=CARTESIAN_POINT('',(0.000998077807549429,2.71050543121376E-18,0.002));
#359=CARTESIAN_POINT('',(0.000998077807549429,2.71050543121376E-18,0.));
#360=CARTESIAN_POINT('',(0.000998077807549429,-0.000938026698673348,0.));
#361=CARTESIAN_POINT('',(0.000998077807549429,-0.000938026698673348,0.002));
#362=CARTESIAN_POINT('',(0.000998077807549429,-0.000938026698673348,0.002));
#363=CARTESIAN_POINT('',(0.000998077807549429,2.71050543121376E-18,0.002));
#364=CARTESIAN_POINT('',(9.16779782845085E-20,-0.001,0.002));
#365=CARTESIAN_POINT('',(9.16779782845085E-20,-0.001,0.));
#366=CARTESIAN_POINT('',(-0.000998403107341766,-0.000943508980799552,0.));
#367=CARTESIAN_POINT('',(-0.000998403107341766,-0.000943508980799552,0.002));
#368=CARTESIAN_POINT('',(-0.000998403107341766,-0.000943508980799552,0.002));
#369=CARTESIAN_POINT('',(9.16779782845085E-20,-0.001,0.002));
#370=CARTESIAN_POINT('',(4.33680868994202E-19,-0.005,0.002));
#371=CARTESIAN_POINT('',(4.33680868994202E-19,-0.005,0.002));
#372=CARTESIAN_POINT('',(0.001,-0.005,0.002));
#373=CARTESIAN_POINT('',(4.33680868994202E-19,-0.005,0.));
#374=CARTESIAN_POINT('',(0.001,-0.005,0.));
#375=CARTESIAN_POINT('',(0.003,0.,0.002));
#376=CARTESIAN_POINT('',(0.003,0.,0.));
#377=CARTESIAN_POINT('',(0.003,0.,0.002));
#378=CARTESIAN_POINT('',(-0.000999201384820598,2.7834595672039E-5,0.002));
#379=CARTESIAN_POINT('',(-0.000999201384820598,2.7834595672039E-5,0.));
#380=CARTESIAN_POINT('',(-0.000999201384820598,2.7834595672039E-5,0.002));
#381=CARTESIAN_POINT('',(0.,0.005,0.002));
#382=CARTESIAN_POINT('',(0.,0.005,0.002));
#383=CARTESIAN_POINT('',(0.001,0.005,0.002));
#384=CARTESIAN_POINT('',(0.,0.005,0.));
#385=CARTESIAN_POINT('',(0.001,0.005,0.));
#386=CARTESIAN_POINT('',(8.67361737988404E-19,0.,0.002));
#387=CARTESIAN_POINT('',(8.67361737988404E-19,0.,0.));
#388=MECHANICAL_DESIGN_GEOMETRIC_PRESENTATION_REPRESENTATION('',(#225),
#389);
#389=(
GEOMETRIC_REPRESENTATION_CONTEXT(3)
GLOBAL_UNCERTAINTY_ASSIGNED_CONTEXT((#390))
GLOBAL_UNIT_ASSIGNED_CONTEXT((#393,#392,#391))
REPRESENTATION_CONTEXT('Part 1','TOP_LEVEL_ASSEMBLY_PART')
);
#390=UNCERTAINTY_MEASURE_WITH_UNIT(LENGTH_MEASURE(1.E-8),#393,
'DISTANCE_ACCURACY_VALUE','Maximum Tolerance applied to model');
#391=(
NAMED_UNIT(*)
SI_UNIT($,.STERADIAN.)
SOLID_ANGLE_UNIT()
);
#392=(
NAMED_UNIT(*)
PLANE_ANGLE_UNIT()
SI_UNIT($,.RADIAN.)
);
#393=(
LENGTH_UNIT()
NAMED_UNIT(*)
SI_UNIT($,.METRE.)
);
#394=PRODUCT_DEFINITION_SHAPE('','',#395);
#395=PRODUCT_DEFINITION('','',#397,#396);
#396=PRODUCT_DEFINITION_CONTEXT('',#403,'design');
#397=PRODUCT_DEFINITION_FORMATION_WITH_SPECIFIED_SOURCE('','',#399,
 .NOT_KNOWN.);
#398=PRODUCT_RELATED_PRODUCT_CATEGORY('','',(#399));
#399=PRODUCT('Part 1','Part 1','Part 1',(#401));
#400=PRODUCT_CATEGORY('','');
#401=PRODUCT_CONTEXT('',#403,'mechanical');
#402=APPLICATION_PROTOCOL_DEFINITION('international standard',
'ap242_managed_model_based_3d_engineering',2020,#403);
#403=APPLICATION_CONTEXT('managed model based 3d engineering');
ENDSEC;
END-ISO-10303-21;
