ISO-10303-21;
HEADER;
/* Generated by software containing ST-Developer
 * from STEP Tools, Inc. (www.steptools.com) 
 */
/* OPTION: using custom renumber hook */

FILE_DESCRIPTION(
/* description */ ('STEP AP242 Edition 2',
'CAx-IF Rec.Pracs.---Representation and Presentation of Product Manufa
cturing Information (PMI)---4.0---2014-10-13',
'CAx-IF Rec.Pracs.---3D Tessellated Geometry---0.4---2014-09-14','2;1',
'CAx-IF Rec.Pracs.---User Defined Attributes---1.5---2016-08-15'),
/* implementation_level */ '2;1');

FILE_NAME(
/* name */ 'Assembly 1 - Part 1 (4)',
/* time_stamp */ '2026-05-21T02:13:30Z',
/* author */ (''),
/* organization */ (''),
/* preprocessor_version */ 'ST-DEVELOPER v20',
/* originating_system */ 'ONSHAPE BY PTC INC, 1.215',
/* authorisation */ '  ');

FILE_SCHEMA (('AP242_MANAGED_MODEL_BASED_3D_ENGINEERING_MIM_LF { 1 0 10303 442 3 1 4 }'));
ENDSEC;

DATA;
#10=SHAPE_REPRESENTATION_RELATIONSHIP('','',#229,#11);
#11=ADVANCED_BREP_SHAPE_REPRESENTATION('',(#227),#387);
#12=PLANE('',#240);
#13=PLANE('',#244);
#14=PLANE('',#257);
#15=PLANE('',#258);
#16=LINE('',#332,#26);
#17=LINE('',#336,#27);
#18=LINE('',#340,#28);
#19=LINE('',#346,#29);
#20=LINE('',#350,#30);
#21=LINE('',#352,#31);
#22=LINE('',#354,#32);
#23=LINE('',#358,#33);
#24=LINE('',#362,#34);
#25=LINE('',#363,#35);
#26=VECTOR('',#265,1.);
#27=VECTOR('',#268,1.);
#28=VECTOR('',#273,1.);
#29=VECTOR('',#280,1.);
#30=VECTOR('',#285,1.);
#31=VECTOR('',#286,1.);
#32=VECTOR('',#287,1.);
#33=VECTOR('',#292,1.);
#34=VECTOR('',#297,1.);
#35=VECTOR('',#298,1.);
#36=ORIENTED_EDGE('',*,*,#88,.T.);
#37=ORIENTED_EDGE('',*,*,#89,.F.);
#38=ORIENTED_EDGE('',*,*,#90,.F.);
#39=ORIENTED_EDGE('',*,*,#91,.T.);
#40=ORIENTED_EDGE('',*,*,#92,.T.);
#41=ORIENTED_EDGE('',*,*,#93,.F.);
#42=ORIENTED_EDGE('',*,*,#94,.F.);
#43=ORIENTED_EDGE('',*,*,#89,.T.);
#44=ORIENTED_EDGE('',*,*,#95,.F.);
#45=ORIENTED_EDGE('',*,*,#96,.F.);
#46=ORIENTED_EDGE('',*,*,#97,.T.);
#47=ORIENTED_EDGE('',*,*,#93,.T.);
#48=ORIENTED_EDGE('',*,*,#98,.T.);
#49=ORIENTED_EDGE('',*,*,#99,.F.);
#50=ORIENTED_EDGE('',*,*,#100,.F.);
#51=ORIENTED_EDGE('',*,*,#96,.T.);
#52=ORIENTED_EDGE('',*,*,#101,.T.);
#53=ORIENTED_EDGE('',*,*,#102,.F.);
#54=ORIENTED_EDGE('',*,*,#103,.F.);
#55=ORIENTED_EDGE('',*,*,#99,.T.);
#56=ORIENTED_EDGE('',*,*,#104,.F.);
#57=ORIENTED_EDGE('',*,*,#91,.F.);
#58=ORIENTED_EDGE('',*,*,#105,.T.);
#59=ORIENTED_EDGE('',*,*,#102,.T.);
#60=ORIENTED_EDGE('',*,*,#106,.T.);
#61=ORIENTED_EDGE('',*,*,#107,.F.);
#62=ORIENTED_EDGE('',*,*,#108,.F.);
#63=ORIENTED_EDGE('',*,*,#109,.T.);
#64=ORIENTED_EDGE('',*,*,#110,.T.);
#65=ORIENTED_EDGE('',*,*,#111,.F.);
#66=ORIENTED_EDGE('',*,*,#112,.T.);
#67=ORIENTED_EDGE('',*,*,#113,.F.);
#68=ORIENTED_EDGE('',*,*,#110,.F.);
#69=ORIENTED_EDGE('',*,*,#108,.T.);
#70=ORIENTED_EDGE('',*,*,#106,.F.);
#71=ORIENTED_EDGE('',*,*,#90,.T.);
#72=ORIENTED_EDGE('',*,*,#94,.T.);
#73=ORIENTED_EDGE('',*,*,#97,.F.);
#74=ORIENTED_EDGE('',*,*,#100,.T.);
#75=ORIENTED_EDGE('',*,*,#103,.T.);
#76=ORIENTED_EDGE('',*,*,#105,.F.);
#77=ORIENTED_EDGE('',*,*,#112,.F.);
#78=ORIENTED_EDGE('',*,*,#111,.T.);
#79=ORIENTED_EDGE('',*,*,#109,.F.);
#80=ORIENTED_EDGE('',*,*,#107,.T.);
#81=ORIENTED_EDGE('',*,*,#88,.F.);
#82=ORIENTED_EDGE('',*,*,#104,.T.);
#83=ORIENTED_EDGE('',*,*,#101,.F.);
#84=ORIENTED_EDGE('',*,*,#98,.F.);
#85=ORIENTED_EDGE('',*,*,#95,.T.);
#86=ORIENTED_EDGE('',*,*,#92,.F.);
#87=ORIENTED_EDGE('',*,*,#113,.T.);
#88=EDGE_CURVE('',#114,#115,#134,.T.);
#89=EDGE_CURVE('',#116,#115,#16,.T.);
#90=EDGE_CURVE('',#117,#116,#135,.T.);
#91=EDGE_CURVE('',#117,#114,#17,.T.);
#92=EDGE_CURVE('',#115,#118,#136,.T.);
#93=EDGE_CURVE('',#119,#118,#18,.T.);
#94=EDGE_CURVE('',#116,#119,#137,.T.);
#95=EDGE_CURVE('',#120,#118,#138,.T.);
#96=EDGE_CURVE('',#121,#120,#19,.T.);
#97=EDGE_CURVE('',#121,#119,#139,.T.);
#98=EDGE_CURVE('',#120,#122,#20,.T.);
#99=EDGE_CURVE('',#123,#122,#21,.T.);
#100=EDGE_CURVE('',#121,#123,#22,.T.);
#101=EDGE_CURVE('',#122,#124,#140,.T.);
#102=EDGE_CURVE('',#125,#124,#23,.T.);
#103=EDGE_CURVE('',#123,#125,#141,.T.);
#104=EDGE_CURVE('',#114,#124,#24,.T.);
#105=EDGE_CURVE('',#117,#125,#25,.T.);
#106=EDGE_CURVE('',#126,#126,#142,.T.);
#107=EDGE_CURVE('',#127,#127,#143,.T.);
#108=EDGE_CURVE('',#128,#128,#144,.T.);
#109=EDGE_CURVE('',#129,#129,#145,.T.);
#110=EDGE_CURVE('',#130,#130,#146,.T.);
#111=EDGE_CURVE('',#131,#131,#147,.T.);
#112=EDGE_CURVE('',#132,#132,#148,.T.);
#113=EDGE_CURVE('',#133,#133,#149,.T.);
#114=VERTEX_POINT('',#330);
#115=VERTEX_POINT('',#331);
#116=VERTEX_POINT('',#333);
#117=VERTEX_POINT('',#335);
#118=VERTEX_POINT('',#339);
#119=VERTEX_POINT('',#341);
#120=VERTEX_POINT('',#345);
#121=VERTEX_POINT('',#347);
#122=VERTEX_POINT('',#351);
#123=VERTEX_POINT('',#353);
#124=VERTEX_POINT('',#357);
#125=VERTEX_POINT('',#359);
#126=VERTEX_POINT('',#366);
#127=VERTEX_POINT('',#368);
#128=VERTEX_POINT('',#371);
#129=VERTEX_POINT('',#373);
#130=VERTEX_POINT('',#376);
#131=VERTEX_POINT('',#378);
#132=VERTEX_POINT('',#381);
#133=VERTEX_POINT('',#383);
#134=CIRCLE('',#232,0.00330339858880412);
#135=CIRCLE('',#233,0.00330339858880412);
#136=CIRCLE('',#235,0.003);
#137=CIRCLE('',#236,0.003);
#138=CIRCLE('',#238,0.00330339858880412);
#139=CIRCLE('',#239,0.00330339858880412);
#140=CIRCLE('',#242,0.003);
#141=CIRCLE('',#243,0.003);
#142=CIRCLE('',#246,0.001);
#143=CIRCLE('',#247,0.001);
#144=CIRCLE('',#249,0.001);
#145=CIRCLE('',#250,0.001);
#146=CIRCLE('',#252,0.001);
#147=CIRCLE('',#253,0.001);
#148=CIRCLE('',#255,0.001);
#149=CIRCLE('',#256,0.001);
#150=EDGE_LOOP('',(#36,#37,#38,#39));
#151=EDGE_LOOP('',(#40,#41,#42,#43));
#152=EDGE_LOOP('',(#44,#45,#46,#47));
#153=EDGE_LOOP('',(#48,#49,#50,#51));
#154=EDGE_LOOP('',(#52,#53,#54,#55));
#155=EDGE_LOOP('',(#56,#57,#58,#59));
#156=EDGE_LOOP('',(#60));
#157=EDGE_LOOP('',(#61));
#158=EDGE_LOOP('',(#62));
#159=EDGE_LOOP('',(#63));
#160=EDGE_LOOP('',(#64));
#161=EDGE_LOOP('',(#65));
#162=EDGE_LOOP('',(#66));
#163=EDGE_LOOP('',(#67));
#164=EDGE_LOOP('',(#68));
#165=EDGE_LOOP('',(#69));
#166=EDGE_LOOP('',(#70));
#167=EDGE_LOOP('',(#71,#72,#73,#74,#75,#76));
#168=EDGE_LOOP('',(#77));
#169=EDGE_LOOP('',(#78));
#170=EDGE_LOOP('',(#79));
#171=EDGE_LOOP('',(#80));
#172=EDGE_LOOP('',(#81,#82,#83,#84,#85,#86));
#173=EDGE_LOOP('',(#87));
#174=FACE_BOUND('',#150,.T.);
#175=FACE_BOUND('',#151,.T.);
#176=FACE_BOUND('',#152,.T.);
#177=FACE_BOUND('',#153,.T.);
#178=FACE_BOUND('',#154,.T.);
#179=FACE_BOUND('',#155,.T.);
#180=FACE_BOUND('',#156,.T.);
#181=FACE_BOUND('',#157,.T.);
#182=FACE_BOUND('',#158,.T.);
#183=FACE_BOUND('',#159,.T.);
#184=FACE_BOUND('',#160,.T.);
#185=FACE_BOUND('',#161,.T.);
#186=FACE_BOUND('',#162,.T.);
#187=FACE_BOUND('',#163,.T.);
#188=FACE_BOUND('',#164,.T.);
#189=FACE_BOUND('',#165,.T.);
#190=FACE_BOUND('',#166,.T.);
#191=FACE_BOUND('',#167,.T.);
#192=FACE_BOUND('',#168,.T.);
#193=FACE_BOUND('',#169,.T.);
#194=FACE_BOUND('',#170,.T.);
#195=FACE_BOUND('',#171,.T.);
#196=FACE_BOUND('',#172,.T.);
#197=FACE_BOUND('',#173,.T.);
#198=CYLINDRICAL_SURFACE('',#231,0.00330339858880412);
#199=CYLINDRICAL_SURFACE('',#234,0.003);
#200=CYLINDRICAL_SURFACE('',#237,0.00330339858880412);
#201=CYLINDRICAL_SURFACE('',#241,0.003);
#202=CYLINDRICAL_SURFACE('',#245,0.001);
#203=CYLINDRICAL_SURFACE('',#248,0.001);
#204=CYLINDRICAL_SURFACE('',#251,0.001);
#205=CYLINDRICAL_SURFACE('',#254,0.001);
#206=ADVANCED_FACE('',(#174),#198,.T.);
#207=ADVANCED_FACE('',(#175),#199,.T.);
#208=ADVANCED_FACE('',(#176),#200,.T.);
#209=ADVANCED_FACE('',(#177),#12,.F.);
#210=ADVANCED_FACE('',(#178),#201,.T.);
#211=ADVANCED_FACE('',(#179),#13,.T.);
#212=ADVANCED_FACE('',(#180,#181),#202,.F.);
#213=ADVANCED_FACE('',(#182,#183),#203,.F.);
#214=ADVANCED_FACE('',(#184,#185),#204,.F.);
#215=ADVANCED_FACE('',(#186,#187),#205,.F.);
#216=ADVANCED_FACE('',(#188,#189,#190,#191,#192),#14,.T.);
#217=ADVANCED_FACE('',(#193,#194,#195,#196,#197),#15,.F.);
#218=CLOSED_SHELL('',(#206,#207,#208,#209,#210,#211,#212,#213,#214,#215,
#216,#217));
#219=STYLED_ITEM('',(#220),#227);
#220=PRESENTATION_STYLE_ASSIGNMENT((#221));
#221=SURFACE_STYLE_USAGE(.BOTH.,#222);
#222=SURFACE_SIDE_STYLE('',(#223));
#223=SURFACE_STYLE_FILL_AREA(#224);
#224=FILL_AREA_STYLE('',(#225));
#225=FILL_AREA_STYLE_COLOUR('',#226);
#226=COLOUR_RGB('',0.615686274509804,0.811764705882353,0.929411764705882);
#227=MANIFOLD_SOLID_BREP('Part 1',#218);
#228=SHAPE_DEFINITION_REPRESENTATION(#392,#229);
#229=SHAPE_REPRESENTATION('Part 1',(#230),#387);
#230=AXIS2_PLACEMENT_3D('',#327,#259,#260);
#231=AXIS2_PLACEMENT_3D('',#328,#261,#262);
#232=AXIS2_PLACEMENT_3D('',#329,#263,#264);
#233=AXIS2_PLACEMENT_3D('',#334,#266,#267);
#234=AXIS2_PLACEMENT_3D('',#337,#269,#270);
#235=AXIS2_PLACEMENT_3D('',#338,#271,#272);
#236=AXIS2_PLACEMENT_3D('',#342,#274,#275);
#237=AXIS2_PLACEMENT_3D('',#343,#276,#277);
#238=AXIS2_PLACEMENT_3D('',#344,#278,#279);
#239=AXIS2_PLACEMENT_3D('',#348,#281,#282);
#240=AXIS2_PLACEMENT_3D('',#349,#283,#284);
#241=AXIS2_PLACEMENT_3D('',#355,#288,#289);
#242=AXIS2_PLACEMENT_3D('',#356,#290,#291);
#243=AXIS2_PLACEMENT_3D('',#360,#293,#294);
#244=AXIS2_PLACEMENT_3D('',#361,#295,#296);
#245=AXIS2_PLACEMENT_3D('',#364,#299,#300);
#246=AXIS2_PLACEMENT_3D('',#365,#301,#302);
#247=AXIS2_PLACEMENT_3D('',#367,#303,#304);
#248=AXIS2_PLACEMENT_3D('',#369,#305,#306);
#249=AXIS2_PLACEMENT_3D('',#370,#307,#308);
#250=AXIS2_PLACEMENT_3D('',#372,#309,#310);
#251=AXIS2_PLACEMENT_3D('',#374,#311,#312);
#252=AXIS2_PLACEMENT_3D('',#375,#313,#314);
#253=AXIS2_PLACEMENT_3D('',#377,#315,#316);
#254=AXIS2_PLACEMENT_3D('',#379,#317,#318);
#255=AXIS2_PLACEMENT_3D('',#380,#319,#320);
#256=AXIS2_PLACEMENT_3D('',#382,#321,#322);
#257=AXIS2_PLACEMENT_3D('',#384,#323,#324);
#258=AXIS2_PLACEMENT_3D('',#385,#325,#326);
#259=DIRECTION('',(0.,0.,1.));
#260=DIRECTION('',(1.,0.,0.));
#261=DIRECTION('',(0.,0.,-1.));
#262=DIRECTION('',(-1.,0.,0.));
#263=DIRECTION('',(0.,0.,1.));
#264=DIRECTION('',(1.,0.,0.));
#265=DIRECTION('',(0.,0.,-1.));
#266=DIRECTION('',(0.,0.,1.));
#267=DIRECTION('',(1.,0.,0.));
#268=DIRECTION('',(0.,0.,-1.));
#269=DIRECTION('',(0.,0.,-1.));
#270=DIRECTION('',(-1.,0.,0.));
#271=DIRECTION('',(0.,0.,1.));
#272=DIRECTION('',(1.,0.,0.));
#273=DIRECTION('',(0.,0.,-1.));
#274=DIRECTION('',(0.,0.,1.));
#275=DIRECTION('',(1.,0.,0.));
#276=DIRECTION('',(0.,0.,-1.));
#277=DIRECTION('',(-1.,0.,0.));
#278=DIRECTION('',(0.,0.,-1.));
#279=DIRECTION('',(1.,0.,0.));
#280=DIRECTION('',(0.,0.,-1.));
#281=DIRECTION('',(0.,0.,-1.));
#282=DIRECTION('',(1.,0.,0.));
#283=DIRECTION('',(1.,1.28078387933967E-16,0.));
#284=DIRECTION('',(-1.28078387933967E-16,1.,0.));
#285=DIRECTION('',(1.28078387933967E-16,-1.,0.));
#286=DIRECTION('',(0.,0.,-1.));
#287=DIRECTION('',(1.28078387933967E-16,-1.,0.));
#288=DIRECTION('',(0.,0.,-1.));
#289=DIRECTION('',(-1.,0.,0.));
#290=DIRECTION('',(0.,0.,1.));
#291=DIRECTION('',(1.,0.,0.));
#292=DIRECTION('',(0.,0.,-1.));
#293=DIRECTION('',(0.,0.,1.));
#294=DIRECTION('',(1.,0.,0.));
#295=DIRECTION('',(1.,6.40391939669835E-17,0.));
#296=DIRECTION('',(-6.40391939669835E-17,1.,0.));
#297=DIRECTION('',(6.40391939669835E-17,-1.,0.));
#298=DIRECTION('',(6.40391939669835E-17,-1.,0.));
#299=DIRECTION('',(0.,0.,-1.));
#300=DIRECTION('',(-1.,0.,0.));
#301=DIRECTION('',(0.,0.,1.));
#302=DIRECTION('',(1.,0.,0.));
#303=DIRECTION('',(0.,0.,1.));
#304=DIRECTION('',(1.,0.,0.));
#305=DIRECTION('',(0.,0.,-1.));
#306=DIRECTION('',(-1.,0.,0.));
#307=DIRECTION('',(0.,0.,-1.));
#308=DIRECTION('',(1.,0.,0.));
#309=DIRECTION('',(0.,0.,-1.));
#310=DIRECTION('',(1.,0.,0.));
#311=DIRECTION('',(0.,0.,-1.));
#312=DIRECTION('',(-1.,0.,0.));
#313=DIRECTION('',(0.,0.,1.));
#314=DIRECTION('',(1.,0.,0.));
#315=DIRECTION('',(0.,0.,1.));
#316=DIRECTION('',(1.,0.,0.));
#317=DIRECTION('',(0.,0.,-1.));
#318=DIRECTION('',(-1.,0.,0.));
#319=DIRECTION('',(0.,0.,1.));
#320=DIRECTION('',(1.,0.,0.));
#321=DIRECTION('',(0.,0.,1.));
#322=DIRECTION('',(1.,0.,0.));
#323=DIRECTION('',(0.,0.,1.));
#324=DIRECTION('',(1.,0.,0.));
#325=DIRECTION('',(0.,0.,1.));
#326=DIRECTION('',(1.,0.,0.));
#327=CARTESIAN_POINT('',(0.,0.,0.));
#328=CARTESIAN_POINT('',(0.0052094453300079,0.0135442325903662,0.002));
#329=CARTESIAN_POINT('',(0.0052094453300079,0.0135442325903662,0.));
#330=CARTESIAN_POINT('',(0.003,0.0110884651807325,0.));
#331=CARTESIAN_POINT('',(0.003,0.016,0.));
#332=CARTESIAN_POINT('',(0.003,0.016,0.002));
#333=CARTESIAN_POINT('',(0.003,0.016,0.002));
#334=CARTESIAN_POINT('',(0.0052094453300079,0.0135442325903662,0.002));
#335=CARTESIAN_POINT('',(0.003,0.0110884651807325,0.002));
#336=CARTESIAN_POINT('',(0.003,0.0110884651807325,0.002));
#337=CARTESIAN_POINT('',(0.,0.016,0.002));
#338=CARTESIAN_POINT('',(0.,0.016,0.));
#339=CARTESIAN_POINT('',(-0.003,0.016,0.));
#340=CARTESIAN_POINT('',(-0.003,0.016,0.002));
#341=CARTESIAN_POINT('',(-0.003,0.016,0.002));
#342=CARTESIAN_POINT('',(0.,0.016,0.002));
#343=CARTESIAN_POINT('',(-0.0052094453300079,0.0135442325903662,0.002));
#344=CARTESIAN_POINT('',(-0.0052094453300079,0.0135442325903662,0.));
#345=CARTESIAN_POINT('',(-0.003,0.0110884651807325,0.));
#346=CARTESIAN_POINT('',(-0.003,0.0110884651807325,0.002));
#347=CARTESIAN_POINT('',(-0.003,0.0110884651807325,0.002));
#348=CARTESIAN_POINT('',(-0.0052094453300079,0.0135442325903662,0.002));
#349=CARTESIAN_POINT('',(-0.003,-0.00245576740963376,0.002));
#350=CARTESIAN_POINT('',(-0.003,-0.00245576740963376,0.));
#351=CARTESIAN_POINT('',(-0.003,-0.016,0.));
#352=CARTESIAN_POINT('',(-0.003,-0.016,0.002));
#353=CARTESIAN_POINT('',(-0.003,-0.016,0.002));
#354=CARTESIAN_POINT('',(-0.003,-0.00245576740963376,0.002));
#355=CARTESIAN_POINT('',(1.7347234759768E-18,-0.016,0.002));
#356=CARTESIAN_POINT('',(1.7347234759768E-18,-0.016,0.));
#357=CARTESIAN_POINT('',(0.003,-0.016,0.));
#358=CARTESIAN_POINT('',(0.003,-0.016,0.002));
#359=CARTESIAN_POINT('',(0.003,-0.016,0.002));
#360=CARTESIAN_POINT('',(1.7347234759768E-18,-0.016,0.002));
#361=CARTESIAN_POINT('',(0.003,-0.00245576740963376,0.002));
#362=CARTESIAN_POINT('',(0.003,-0.00245576740963376,0.));
#363=CARTESIAN_POINT('',(0.003,-0.00245576740963376,0.002));
#364=CARTESIAN_POINT('',(0.0052094453300079,0.0135442325903662,0.002));
#365=CARTESIAN_POINT('',(0.0052094453300079,0.0135442325903662,0.002));
#366=CARTESIAN_POINT('',(0.0062094453300079,0.0135442325903662,0.002));
#367=CARTESIAN_POINT('',(0.0052094453300079,0.0135442325903662,0.));
#368=CARTESIAN_POINT('',(0.0062094453300079,0.0135442325903662,0.));
#369=CARTESIAN_POINT('',(-0.0052094453300079,0.0135442325903662,0.002));
#370=CARTESIAN_POINT('',(-0.0052094453300079,0.0135442325903662,0.002));
#371=CARTESIAN_POINT('',(-0.0042094453300079,0.0135442325903662,0.002));
#372=CARTESIAN_POINT('',(-0.0052094453300079,0.0135442325903662,0.));
#373=CARTESIAN_POINT('',(-0.0042094453300079,0.0135442325903662,0.));
#374=CARTESIAN_POINT('',(0.,0.016,0.002));
#375=CARTESIAN_POINT('',(0.,0.016,0.002));
#376=CARTESIAN_POINT('',(0.001,0.016,0.002));
#377=CARTESIAN_POINT('',(0.,0.016,0.));
#378=CARTESIAN_POINT('',(0.001,0.016,0.));
#379=CARTESIAN_POINT('',(1.95156391047391E-18,-0.016,0.002));
#380=CARTESIAN_POINT('',(1.95156391047391E-18,-0.016,0.002));
#381=CARTESIAN_POINT('',(0.001,-0.016,0.002));
#382=CARTESIAN_POINT('',(1.95156391047391E-18,-0.016,0.));
#383=CARTESIAN_POINT('',(0.001,-0.016,0.));
#384=CARTESIAN_POINT('',(0.,0.,0.002));
#385=CARTESIAN_POINT('',(0.,0.,0.));
#386=MECHANICAL_DESIGN_GEOMETRIC_PRESENTATION_REPRESENTATION('',(#219),
#387);
#387=(
GEOMETRIC_REPRESENTATION_CONTEXT(3)
GLOBAL_UNCERTAINTY_ASSIGNED_CONTEXT((#388))
GLOBAL_UNIT_ASSIGNED_CONTEXT((#391,#390,#389))
REPRESENTATION_CONTEXT('Part 1','TOP_LEVEL_ASSEMBLY_PART')
);
#388=UNCERTAINTY_MEASURE_WITH_UNIT(LENGTH_MEASURE(1.E-8),#391,
'DISTANCE_ACCURACY_VALUE','Maximum Tolerance applied to model');
#389=(
NAMED_UNIT(*)
SI_UNIT($,.STERADIAN.)
SOLID_ANGLE_UNIT()
);
#390=(
NAMED_UNIT(*)
PLANE_ANGLE_UNIT()
SI_UNIT($,.RADIAN.)
);
#391=(
LENGTH_UNIT()
NAMED_UNIT(*)
SI_UNIT($,.METRE.)
);
#392=PRODUCT_DEFINITION_SHAPE('','',#393);
#393=PRODUCT_DEFINITION('','',#395,#394);
#394=PRODUCT_DEFINITION_CONTEXT('',#401,'design');
#395=PRODUCT_DEFINITION_FORMATION_WITH_SPECIFIED_SOURCE('','',#397,
 .NOT_KNOWN.);
#396=PRODUCT_RELATED_PRODUCT_CATEGORY('','',(#397));
#397=PRODUCT('Part 1','Part 1','Part 1',(#399));
#398=PRODUCT_CATEGORY('','');
#399=PRODUCT_CONTEXT('',#401,'mechanical');
#400=APPLICATION_PROTOCOL_DEFINITION('international standard',
'ap242_managed_model_based_3d_engineering',2020,#401);
#401=APPLICATION_CONTEXT('managed model based 3d engineering');
ENDSEC;
END-ISO-10303-21;
