ISO-10303-21;
HEADER;
/* Generated by software containing ST-Developer
 * from STEP Tools, Inc. (www.steptools.com) 
 */
/* OPTION: using custom renumber hook */

FILE_DESCRIPTION(
/* description */ ('STEP AP242 Edition 2',
'CAx-IF Rec.Pracs.---Representation and Presentation of Product Manufa
cturing Information (PMI)---4.0---2014-10-13',
'CAx-IF Rec.Pracs.---3D Tessellated Geometry---0.4---2014-09-14','2;1',
'CAx-IF Rec.Pracs.---User Defined Attributes---1.5---2016-08-15'),
/* implementation_level */ '2;1');

FILE_NAME(
/* name */ 'Assembly 1 - Part 1 (1)',
/* time_stamp */ '2026-05-21T02:21:53Z',
/* author */ (''),
/* organization */ (''),
/* preprocessor_version */ 'ST-DEVELOPER v20',
/* originating_system */ 'ONSHAPE BY PTC INC, 1.215',
/* authorisation */ '  ');

FILE_SCHEMA (('AP242_MANAGED_MODEL_BASED_3D_ENGINEERING_MIM_LF { 1 0 10303 442 3 1 4 }'));
ENDSEC;

DATA;
#10=SHAPE_REPRESENTATION_RELATIONSHIP('','',#783,#11);
#11=ADVANCED_BREP_SHAPE_REPRESENTATION('',(#781),#1279);
#12=ELLIPSE('',#845,0.00777817459305202,0.0055);
#13=ELLIPSE('',#846,0.00777817459305202,0.0055);
#14=ELLIPSE('',#848,0.00777817459305202,0.0055);
#15=ELLIPSE('',#850,0.00777817459305202,0.0055);
#16=ELLIPSE('',#853,0.00777817459305202,0.0055);
#17=ELLIPSE('',#854,0.00777817459305202,0.0055);
#18=ELLIPSE('',#856,0.00777817459305202,0.0055);
#19=ELLIPSE('',#858,0.00777817459305202,0.0055);
#20=CYLINDRICAL_SURFACE('',#808,0.001);
#21=CYLINDRICAL_SURFACE('',#810,0.001);
#22=CYLINDRICAL_SURFACE('',#812,0.001);
#23=CYLINDRICAL_SURFACE('',#814,0.001);
#24=CYLINDRICAL_SURFACE('',#816,0.001);
#25=CYLINDRICAL_SURFACE('',#818,0.001);
#26=CYLINDRICAL_SURFACE('',#820,0.001);
#27=CYLINDRICAL_SURFACE('',#822,0.001);
#28=CYLINDRICAL_SURFACE('',#824,0.0015);
#29=CYLINDRICAL_SURFACE('',#826,0.0015);
#30=CYLINDRICAL_SURFACE('',#828,0.0015);
#31=CYLINDRICAL_SURFACE('',#830,0.0015);
#32=CYLINDRICAL_SURFACE('',#843,0.001);
#33=CYLINDRICAL_SURFACE('',#844,0.0055);
#34=CYLINDRICAL_SURFACE('',#847,0.0055);
#35=CYLINDRICAL_SURFACE('',#849,0.0055);
#36=CYLINDRICAL_SURFACE('',#851,0.0055);
#37=CYLINDRICAL_SURFACE('',#852,0.0055);
#38=CYLINDRICAL_SURFACE('',#855,0.0055);
#39=CYLINDRICAL_SURFACE('',#857,0.0055);
#40=CYLINDRICAL_SURFACE('',#859,0.0055);
#41=CIRCLE('',#786,0.0015);
#42=CIRCLE('',#787,0.0015);
#43=CIRCLE('',#788,0.0015);
#44=CIRCLE('',#789,0.0015);
#45=CIRCLE('',#790,0.001);
#46=CIRCLE('',#791,0.001);
#47=CIRCLE('',#792,0.001);
#48=CIRCLE('',#793,0.001);
#49=CIRCLE('',#794,0.001);
#50=CIRCLE('',#795,0.001);
#51=CIRCLE('',#796,0.001);
#52=CIRCLE('',#797,0.001);
#53=CIRCLE('',#809,0.001);
#54=CIRCLE('',#811,0.001);
#55=CIRCLE('',#813,0.001);
#56=CIRCLE('',#815,0.001);
#57=CIRCLE('',#817,0.001);
#58=CIRCLE('',#819,0.001);
#59=CIRCLE('',#821,0.001);
#60=CIRCLE('',#823,0.001);
#61=CIRCLE('',#825,0.0015);
#62=CIRCLE('',#827,0.0015);
#63=CIRCLE('',#829,0.0015);
#64=CIRCLE('',#831,0.0015);
#65=CIRCLE('',#838,0.001);
#66=CIRCLE('',#841,0.001);
#67=ORIENTED_EDGE('',*,*,#255,.T.);
#68=ORIENTED_EDGE('',*,*,#256,.T.);
#69=ORIENTED_EDGE('',*,*,#257,.T.);
#70=ORIENTED_EDGE('',*,*,#258,.T.);
#71=ORIENTED_EDGE('',*,*,#259,.T.);
#72=ORIENTED_EDGE('',*,*,#260,.T.);
#73=ORIENTED_EDGE('',*,*,#261,.T.);
#74=ORIENTED_EDGE('',*,*,#262,.T.);
#75=ORIENTED_EDGE('',*,*,#263,.F.);
#76=ORIENTED_EDGE('',*,*,#264,.F.);
#77=ORIENTED_EDGE('',*,*,#265,.F.);
#78=ORIENTED_EDGE('',*,*,#266,.T.);
#79=ORIENTED_EDGE('',*,*,#267,.F.);
#80=ORIENTED_EDGE('',*,*,#268,.F.);
#81=ORIENTED_EDGE('',*,*,#269,.F.);
#82=ORIENTED_EDGE('',*,*,#270,.F.);
#83=ORIENTED_EDGE('',*,*,#271,.F.);
#84=ORIENTED_EDGE('',*,*,#272,.F.);
#85=ORIENTED_EDGE('',*,*,#273,.F.);
#86=ORIENTED_EDGE('',*,*,#274,.F.);
#87=ORIENTED_EDGE('',*,*,#275,.F.);
#88=ORIENTED_EDGE('',*,*,#276,.F.);
#89=ORIENTED_EDGE('',*,*,#277,.F.);
#90=ORIENTED_EDGE('',*,*,#278,.F.);
#91=ORIENTED_EDGE('',*,*,#279,.T.);
#92=ORIENTED_EDGE('',*,*,#280,.T.);
#93=ORIENTED_EDGE('',*,*,#281,.F.);
#94=ORIENTED_EDGE('',*,*,#282,.F.);
#95=ORIENTED_EDGE('',*,*,#283,.F.);
#96=ORIENTED_EDGE('',*,*,#284,.T.);
#97=ORIENTED_EDGE('',*,*,#285,.T.);
#98=ORIENTED_EDGE('',*,*,#286,.F.);
#99=ORIENTED_EDGE('',*,*,#283,.T.);
#100=ORIENTED_EDGE('',*,*,#287,.F.);
#101=ORIENTED_EDGE('',*,*,#288,.F.);
#102=ORIENTED_EDGE('',*,*,#289,.T.);
#103=ORIENTED_EDGE('',*,*,#284,.F.);
#104=ORIENTED_EDGE('',*,*,#289,.F.);
#105=ORIENTED_EDGE('',*,*,#290,.T.);
#106=ORIENTED_EDGE('',*,*,#291,.T.);
#107=ORIENTED_EDGE('',*,*,#285,.F.);
#108=ORIENTED_EDGE('',*,*,#291,.F.);
#109=ORIENTED_EDGE('',*,*,#292,.T.);
#110=ORIENTED_EDGE('',*,*,#293,.T.);
#111=ORIENTED_EDGE('',*,*,#279,.F.);
#112=ORIENTED_EDGE('',*,*,#294,.F.);
#113=ORIENTED_EDGE('',*,*,#295,.T.);
#114=ORIENTED_EDGE('',*,*,#296,.T.);
#115=ORIENTED_EDGE('',*,*,#280,.F.);
#116=ORIENTED_EDGE('',*,*,#296,.F.);
#117=ORIENTED_EDGE('',*,*,#297,.T.);
#118=ORIENTED_EDGE('',*,*,#298,.T.);
#119=ORIENTED_EDGE('',*,*,#281,.T.);
#120=ORIENTED_EDGE('',*,*,#298,.F.);
#121=ORIENTED_EDGE('',*,*,#299,.F.);
#122=ORIENTED_EDGE('',*,*,#300,.T.);
#123=ORIENTED_EDGE('',*,*,#263,.T.);
#124=ORIENTED_EDGE('',*,*,#301,.F.);
#125=ORIENTED_EDGE('',*,*,#302,.F.);
#126=ORIENTED_EDGE('',*,*,#303,.T.);
#127=ORIENTED_EDGE('',*,*,#264,.T.);
#128=ORIENTED_EDGE('',*,*,#303,.F.);
#129=ORIENTED_EDGE('',*,*,#304,.F.);
#130=ORIENTED_EDGE('',*,*,#305,.T.);
#131=ORIENTED_EDGE('',*,*,#265,.T.);
#132=ORIENTED_EDGE('',*,*,#305,.F.);
#133=ORIENTED_EDGE('',*,*,#306,.F.);
#134=ORIENTED_EDGE('',*,*,#307,.T.);
#135=ORIENTED_EDGE('',*,*,#282,.T.);
#136=ORIENTED_EDGE('',*,*,#300,.F.);
#137=ORIENTED_EDGE('',*,*,#308,.F.);
#138=ORIENTED_EDGE('',*,*,#294,.T.);
#139=ORIENTED_EDGE('',*,*,#309,.F.);
#140=ORIENTED_EDGE('',*,*,#278,.T.);
#141=ORIENTED_EDGE('',*,*,#310,.F.);
#142=ORIENTED_EDGE('',*,*,#277,.T.);
#143=ORIENTED_EDGE('',*,*,#311,.F.);
#144=ORIENTED_EDGE('',*,*,#276,.T.);
#145=ORIENTED_EDGE('',*,*,#312,.F.);
#146=ORIENTED_EDGE('',*,*,#275,.T.);
#147=ORIENTED_EDGE('',*,*,#313,.F.);
#148=ORIENTED_EDGE('',*,*,#274,.T.);
#149=ORIENTED_EDGE('',*,*,#314,.F.);
#150=ORIENTED_EDGE('',*,*,#273,.T.);
#151=ORIENTED_EDGE('',*,*,#315,.F.);
#152=ORIENTED_EDGE('',*,*,#272,.T.);
#153=ORIENTED_EDGE('',*,*,#316,.F.);
#154=ORIENTED_EDGE('',*,*,#271,.T.);
#155=ORIENTED_EDGE('',*,*,#317,.F.);
#156=ORIENTED_EDGE('',*,*,#270,.T.);
#157=ORIENTED_EDGE('',*,*,#318,.F.);
#158=ORIENTED_EDGE('',*,*,#269,.T.);
#159=ORIENTED_EDGE('',*,*,#319,.F.);
#160=ORIENTED_EDGE('',*,*,#268,.T.);
#161=ORIENTED_EDGE('',*,*,#320,.F.);
#162=ORIENTED_EDGE('',*,*,#267,.T.);
#163=ORIENTED_EDGE('',*,*,#266,.F.);
#164=ORIENTED_EDGE('',*,*,#307,.F.);
#165=ORIENTED_EDGE('',*,*,#321,.T.);
#166=ORIENTED_EDGE('',*,*,#301,.T.);
#167=ORIENTED_EDGE('',*,*,#286,.T.);
#168=ORIENTED_EDGE('',*,*,#293,.F.);
#169=ORIENTED_EDGE('',*,*,#322,.F.);
#170=ORIENTED_EDGE('',*,*,#287,.T.);
#171=ORIENTED_EDGE('',*,*,#302,.T.);
#172=ORIENTED_EDGE('',*,*,#321,.F.);
#173=ORIENTED_EDGE('',*,*,#306,.T.);
#174=ORIENTED_EDGE('',*,*,#304,.T.);
#175=ORIENTED_EDGE('',*,*,#320,.T.);
#176=ORIENTED_EDGE('',*,*,#319,.T.);
#177=ORIENTED_EDGE('',*,*,#318,.T.);
#178=ORIENTED_EDGE('',*,*,#317,.T.);
#179=ORIENTED_EDGE('',*,*,#316,.T.);
#180=ORIENTED_EDGE('',*,*,#315,.T.);
#181=ORIENTED_EDGE('',*,*,#314,.T.);
#182=ORIENTED_EDGE('',*,*,#313,.T.);
#183=ORIENTED_EDGE('',*,*,#312,.T.);
#184=ORIENTED_EDGE('',*,*,#311,.T.);
#185=ORIENTED_EDGE('',*,*,#310,.T.);
#186=ORIENTED_EDGE('',*,*,#309,.T.);
#187=ORIENTED_EDGE('',*,*,#295,.F.);
#188=ORIENTED_EDGE('',*,*,#308,.T.);
#189=ORIENTED_EDGE('',*,*,#299,.T.);
#190=ORIENTED_EDGE('',*,*,#297,.F.);
#191=ORIENTED_EDGE('',*,*,#288,.T.);
#192=ORIENTED_EDGE('',*,*,#322,.T.);
#193=ORIENTED_EDGE('',*,*,#292,.F.);
#194=ORIENTED_EDGE('',*,*,#290,.F.);
#195=ORIENTED_EDGE('',*,*,#323,.T.);
#196=ORIENTED_EDGE('',*,*,#324,.T.);
#197=ORIENTED_EDGE('',*,*,#325,.T.);
#198=ORIENTED_EDGE('',*,*,#326,.T.);
#199=ORIENTED_EDGE('',*,*,#327,.T.);
#200=ORIENTED_EDGE('',*,*,#328,.T.);
#201=ORIENTED_EDGE('',*,*,#329,.F.);
#202=ORIENTED_EDGE('',*,*,#330,.F.);
#203=ORIENTED_EDGE('',*,*,#331,.F.);
#204=ORIENTED_EDGE('',*,*,#329,.T.);
#205=ORIENTED_EDGE('',*,*,#332,.T.);
#206=ORIENTED_EDGE('',*,*,#333,.F.);
#207=ORIENTED_EDGE('',*,*,#334,.F.);
#208=ORIENTED_EDGE('',*,*,#333,.T.);
#209=ORIENTED_EDGE('',*,*,#335,.T.);
#210=ORIENTED_EDGE('',*,*,#336,.F.);
#211=ORIENTED_EDGE('',*,*,#337,.T.);
#212=ORIENTED_EDGE('',*,*,#338,.F.);
#213=ORIENTED_EDGE('',*,*,#336,.T.);
#214=ORIENTED_EDGE('',*,*,#339,.T.);
#215=ORIENTED_EDGE('',*,*,#327,.F.);
#216=ORIENTED_EDGE('',*,*,#340,.T.);
#217=ORIENTED_EDGE('',*,*,#330,.T.);
#218=ORIENTED_EDGE('',*,*,#334,.T.);
#219=ORIENTED_EDGE('',*,*,#337,.F.);
#220=ORIENTED_EDGE('',*,*,#340,.F.);
#221=ORIENTED_EDGE('',*,*,#338,.T.);
#222=ORIENTED_EDGE('',*,*,#331,.T.);
#223=ORIENTED_EDGE('',*,*,#341,.F.);
#224=ORIENTED_EDGE('',*,*,#258,.F.);
#225=ORIENTED_EDGE('',*,*,#342,.F.);
#226=ORIENTED_EDGE('',*,*,#323,.F.);
#227=ORIENTED_EDGE('',*,*,#342,.T.);
#228=ORIENTED_EDGE('',*,*,#257,.F.);
#229=ORIENTED_EDGE('',*,*,#343,.F.);
#230=ORIENTED_EDGE('',*,*,#324,.F.);
#231=ORIENTED_EDGE('',*,*,#341,.T.);
#232=ORIENTED_EDGE('',*,*,#326,.F.);
#233=ORIENTED_EDGE('',*,*,#344,.F.);
#234=ORIENTED_EDGE('',*,*,#255,.F.);
#235=ORIENTED_EDGE('',*,*,#343,.T.);
#236=ORIENTED_EDGE('',*,*,#256,.F.);
#237=ORIENTED_EDGE('',*,*,#344,.T.);
#238=ORIENTED_EDGE('',*,*,#325,.F.);
#239=ORIENTED_EDGE('',*,*,#345,.F.);
#240=ORIENTED_EDGE('',*,*,#262,.F.);
#241=ORIENTED_EDGE('',*,*,#346,.F.);
#242=ORIENTED_EDGE('',*,*,#335,.F.);
#243=ORIENTED_EDGE('',*,*,#346,.T.);
#244=ORIENTED_EDGE('',*,*,#261,.F.);
#245=ORIENTED_EDGE('',*,*,#347,.F.);
#246=ORIENTED_EDGE('',*,*,#339,.F.);
#247=ORIENTED_EDGE('',*,*,#345,.T.);
#248=ORIENTED_EDGE('',*,*,#332,.F.);
#249=ORIENTED_EDGE('',*,*,#348,.F.);
#250=ORIENTED_EDGE('',*,*,#259,.F.);
#251=ORIENTED_EDGE('',*,*,#347,.T.);
#252=ORIENTED_EDGE('',*,*,#260,.F.);
#253=ORIENTED_EDGE('',*,*,#348,.T.);
#254=ORIENTED_EDGE('',*,*,#328,.F.);
#255=EDGE_CURVE('',#349,#350,#419,.F.);
#256=EDGE_CURVE('',#350,#351,#420,.F.);
#257=EDGE_CURVE('',#351,#352,#421,.T.);
#258=EDGE_CURVE('',#352,#349,#422,.T.);
#259=EDGE_CURVE('',#353,#354,#423,.F.);
#260=EDGE_CURVE('',#354,#355,#424,.F.);
#261=EDGE_CURVE('',#355,#356,#425,.T.);
#262=EDGE_CURVE('',#356,#353,#426,.T.);
#263=EDGE_CURVE('',#357,#358,#427,.T.);
#264=EDGE_CURVE('',#359,#357,#428,.T.);
#265=EDGE_CURVE('',#360,#359,#429,.T.);
#266=EDGE_CURVE('',#360,#358,#430,.T.);
#267=EDGE_CURVE('',#361,#361,#41,.T.);
#268=EDGE_CURVE('',#362,#362,#42,.T.);
#269=EDGE_CURVE('',#363,#363,#43,.T.);
#270=EDGE_CURVE('',#364,#364,#44,.T.);
#271=EDGE_CURVE('',#365,#365,#45,.T.);
#272=EDGE_CURVE('',#366,#366,#46,.T.);
#273=EDGE_CURVE('',#367,#367,#47,.T.);
#274=EDGE_CURVE('',#368,#368,#48,.T.);
#275=EDGE_CURVE('',#369,#369,#49,.T.);
#276=EDGE_CURVE('',#370,#370,#50,.T.);
#277=EDGE_CURVE('',#371,#371,#51,.T.);
#278=EDGE_CURVE('',#372,#372,#52,.T.);
#279=EDGE_CURVE('',#373,#374,#431,.T.);
#280=EDGE_CURVE('',#374,#375,#432,.T.);
#281=EDGE_CURVE('',#376,#375,#433,.T.);
#282=EDGE_CURVE('',#373,#376,#434,.T.);
#283=EDGE_CURVE('',#377,#378,#435,.T.);
#284=EDGE_CURVE('',#377,#379,#436,.T.);
#285=EDGE_CURVE('',#379,#380,#437,.T.);
#286=EDGE_CURVE('',#378,#380,#438,.T.);
#287=EDGE_CURVE('',#381,#378,#439,.T.);
#288=EDGE_CURVE('',#382,#381,#440,.T.);
#289=EDGE_CURVE('',#382,#377,#441,.T.);
#290=EDGE_CURVE('',#382,#383,#442,.T.);
#291=EDGE_CURVE('',#383,#379,#443,.T.);
#292=EDGE_CURVE('',#383,#384,#444,.T.);
#293=EDGE_CURVE('',#384,#380,#445,.T.);
#294=EDGE_CURVE('',#385,#373,#446,.T.);
#295=EDGE_CURVE('',#385,#386,#447,.T.);
#296=EDGE_CURVE('',#386,#374,#448,.T.);
#297=EDGE_CURVE('',#386,#387,#449,.T.);
#298=EDGE_CURVE('',#387,#375,#450,.T.);
#299=EDGE_CURVE('',#388,#387,#451,.T.);
#300=EDGE_CURVE('',#388,#376,#452,.T.);
#301=EDGE_CURVE('',#389,#358,#453,.T.);
#302=EDGE_CURVE('',#390,#389,#454,.T.);
#303=EDGE_CURVE('',#390,#357,#455,.T.);
#304=EDGE_CURVE('',#391,#390,#456,.T.);
#305=EDGE_CURVE('',#391,#359,#457,.T.);
#306=EDGE_CURVE('',#392,#391,#458,.T.);
#307=EDGE_CURVE('',#392,#360,#459,.T.);
#308=EDGE_CURVE('',#385,#388,#460,.T.);
#309=EDGE_CURVE('',#393,#393,#53,.T.);
#310=EDGE_CURVE('',#394,#394,#54,.T.);
#311=EDGE_CURVE('',#395,#395,#55,.T.);
#312=EDGE_CURVE('',#396,#396,#56,.T.);
#313=EDGE_CURVE('',#397,#397,#57,.T.);
#314=EDGE_CURVE('',#398,#398,#58,.T.);
#315=EDGE_CURVE('',#399,#399,#59,.T.);
#316=EDGE_CURVE('',#400,#400,#60,.T.);
#317=EDGE_CURVE('',#401,#401,#61,.T.);
#318=EDGE_CURVE('',#402,#402,#62,.T.);
#319=EDGE_CURVE('',#403,#403,#63,.T.);
#320=EDGE_CURVE('',#404,#404,#64,.T.);
#321=EDGE_CURVE('',#392,#389,#461,.T.);
#322=EDGE_CURVE('',#381,#384,#462,.T.);
#323=EDGE_CURVE('',#405,#406,#463,.T.);
#324=EDGE_CURVE('',#406,#407,#464,.T.);
#325=EDGE_CURVE('',#407,#408,#465,.T.);
#326=EDGE_CURVE('',#408,#405,#466,.T.);
#327=EDGE_CURVE('',#409,#410,#467,.T.);
#328=EDGE_CURVE('',#410,#411,#468,.T.);
#329=EDGE_CURVE('',#412,#411,#469,.T.);
#330=EDGE_CURVE('',#409,#412,#470,.T.);
#331=EDGE_CURVE('',#413,#413,#65,.T.);
#332=EDGE_CURVE('',#411,#414,#471,.T.);
#333=EDGE_CURVE('',#415,#414,#472,.T.);
#334=EDGE_CURVE('',#412,#415,#473,.T.);
#335=EDGE_CURVE('',#414,#416,#474,.F.);
#336=EDGE_CURVE('',#417,#416,#475,.T.);
#337=EDGE_CURVE('',#417,#415,#476,.T.);
#338=EDGE_CURVE('',#418,#418,#66,.T.);
#339=EDGE_CURVE('',#416,#410,#477,.F.);
#340=EDGE_CURVE('',#409,#417,#478,.T.);
#341=EDGE_CURVE('',#349,#405,#12,.T.);
#342=EDGE_CURVE('',#406,#352,#13,.F.);
#343=EDGE_CURVE('',#407,#351,#14,.F.);
#344=EDGE_CURVE('',#350,#408,#15,.T.);
#345=EDGE_CURVE('',#353,#414,#16,.T.);
#346=EDGE_CURVE('',#416,#356,#17,.F.);
#347=EDGE_CURVE('',#410,#355,#18,.F.);
#348=EDGE_CURVE('',#354,#411,#19,.T.);
#349=VERTEX_POINT('',#1075);
#350=VERTEX_POINT('',#1076);
#351=VERTEX_POINT('',#1078);
#352=VERTEX_POINT('',#1080);
#353=VERTEX_POINT('',#1083);
#354=VERTEX_POINT('',#1084);
#355=VERTEX_POINT('',#1086);
#356=VERTEX_POINT('',#1088);
#357=VERTEX_POINT('',#1091);
#358=VERTEX_POINT('',#1092);
#359=VERTEX_POINT('',#1094);
#360=VERTEX_POINT('',#1096);
#361=VERTEX_POINT('',#1099);
#362=VERTEX_POINT('',#1101);
#363=VERTEX_POINT('',#1103);
#364=VERTEX_POINT('',#1105);
#365=VERTEX_POINT('',#1107);
#366=VERTEX_POINT('',#1109);
#367=VERTEX_POINT('',#1111);
#368=VERTEX_POINT('',#1113);
#369=VERTEX_POINT('',#1115);
#370=VERTEX_POINT('',#1117);
#371=VERTEX_POINT('',#1119);
#372=VERTEX_POINT('',#1121);
#373=VERTEX_POINT('',#1123);
#374=VERTEX_POINT('',#1124);
#375=VERTEX_POINT('',#1126);
#376=VERTEX_POINT('',#1128);
#377=VERTEX_POINT('',#1131);
#378=VERTEX_POINT('',#1132);
#379=VERTEX_POINT('',#1134);
#380=VERTEX_POINT('',#1136);
#381=VERTEX_POINT('',#1140);
#382=VERTEX_POINT('',#1142);
#383=VERTEX_POINT('',#1146);
#384=VERTEX_POINT('',#1150);
#385=VERTEX_POINT('',#1154);
#386=VERTEX_POINT('',#1156);
#387=VERTEX_POINT('',#1160);
#388=VERTEX_POINT('',#1164);
#389=VERTEX_POINT('',#1168);
#390=VERTEX_POINT('',#1170);
#391=VERTEX_POINT('',#1174);
#392=VERTEX_POINT('',#1178);
#393=VERTEX_POINT('',#1184);
#394=VERTEX_POINT('',#1187);
#395=VERTEX_POINT('',#1190);
#396=VERTEX_POINT('',#1193);
#397=VERTEX_POINT('',#1196);
#398=VERTEX_POINT('',#1199);
#399=VERTEX_POINT('',#1202);
#400=VERTEX_POINT('',#1205);
#401=VERTEX_POINT('',#1208);
#402=VERTEX_POINT('',#1211);
#403=VERTEX_POINT('',#1214);
#404=VERTEX_POINT('',#1217);
#405=VERTEX_POINT('',#1225);
#406=VERTEX_POINT('',#1226);
#407=VERTEX_POINT('',#1228);
#408=VERTEX_POINT('',#1230);
#409=VERTEX_POINT('',#1234);
#410=VERTEX_POINT('',#1235);
#411=VERTEX_POINT('',#1237);
#412=VERTEX_POINT('',#1239);
#413=VERTEX_POINT('',#1243);
#414=VERTEX_POINT('',#1245);
#415=VERTEX_POINT('',#1247);
#416=VERTEX_POINT('',#1251);
#417=VERTEX_POINT('',#1253);
#418=VERTEX_POINT('',#1257);
#419=LINE('',#1074,#479);
#420=LINE('',#1077,#480);
#421=LINE('',#1079,#481);
#422=LINE('',#1081,#482);
#423=LINE('',#1082,#483);
#424=LINE('',#1085,#484);
#425=LINE('',#1087,#485);
#426=LINE('',#1089,#486);
#427=LINE('',#1090,#487);
#428=LINE('',#1093,#488);
#429=LINE('',#1095,#489);
#430=LINE('',#1097,#490);
#431=LINE('',#1122,#491);
#432=LINE('',#1125,#492);
#433=LINE('',#1127,#493);
#434=LINE('',#1129,#494);
#435=LINE('',#1130,#495);
#436=LINE('',#1133,#496);
#437=LINE('',#1135,#497);
#438=LINE('',#1137,#498);
#439=LINE('',#1139,#499);
#440=LINE('',#1141,#500);
#441=LINE('',#1143,#501);
#442=LINE('',#1145,#502);
#443=LINE('',#1147,#503);
#444=LINE('',#1149,#504);
#445=LINE('',#1151,#505);
#446=LINE('',#1153,#506);
#447=LINE('',#1155,#507);
#448=LINE('',#1157,#508);
#449=LINE('',#1159,#509);
#450=LINE('',#1161,#510);
#451=LINE('',#1163,#511);
#452=LINE('',#1165,#512);
#453=LINE('',#1167,#513);
#454=LINE('',#1169,#514);
#455=LINE('',#1171,#515);
#456=LINE('',#1173,#516);
#457=LINE('',#1175,#517);
#458=LINE('',#1177,#518);
#459=LINE('',#1179,#519);
#460=LINE('',#1181,#520);
#461=LINE('',#1219,#521);
#462=LINE('',#1221,#522);
#463=LINE('',#1224,#523);
#464=LINE('',#1227,#524);
#465=LINE('',#1229,#525);
#466=LINE('',#1231,#526);
#467=LINE('',#1233,#527);
#468=LINE('',#1236,#528);
#469=LINE('',#1238,#529);
#470=LINE('',#1240,#530);
#471=LINE('',#1244,#531);
#472=LINE('',#1246,#532);
#473=LINE('',#1248,#533);
#474=LINE('',#1250,#534);
#475=LINE('',#1252,#535);
#476=LINE('',#1254,#536);
#477=LINE('',#1258,#537);
#478=LINE('',#1259,#538);
#479=VECTOR('',#864,1.);
#480=VECTOR('',#865,1.);
#481=VECTOR('',#866,1.);
#482=VECTOR('',#867,1.);
#483=VECTOR('',#868,1.);
#484=VECTOR('',#869,1.);
#485=VECTOR('',#870,1.);
#486=VECTOR('',#871,1.);
#487=VECTOR('',#872,1.);
#488=VECTOR('',#873,1.);
#489=VECTOR('',#874,1.);
#490=VECTOR('',#875,1.);
#491=VECTOR('',#900,1.);
#492=VECTOR('',#901,1.);
#493=VECTOR('',#902,1.);
#494=VECTOR('',#903,1.);
#495=VECTOR('',#904,1.);
#496=VECTOR('',#905,1.);
#497=VECTOR('',#906,1.);
#498=VECTOR('',#907,1.);
#499=VECTOR('',#910,1.);
#500=VECTOR('',#911,1.);
#501=VECTOR('',#912,1.);
#502=VECTOR('',#915,1.);
#503=VECTOR('',#916,1.);
#504=VECTOR('',#919,1.);
#505=VECTOR('',#920,1.);
#506=VECTOR('',#923,1.);
#507=VECTOR('',#924,1.);
#508=VECTOR('',#925,1.);
#509=VECTOR('',#928,1.);
#510=VECTOR('',#929,1.);
#511=VECTOR('',#932,1.);
#512=VECTOR('',#933,1.);
#513=VECTOR('',#936,1.);
#514=VECTOR('',#937,1.);
#515=VECTOR('',#938,1.);
#516=VECTOR('',#941,1.);
#517=VECTOR('',#942,1.);
#518=VECTOR('',#945,1.);
#519=VECTOR('',#946,1.);
#520=VECTOR('',#949,1.);
#521=VECTOR('',#1000,1.);
#522=VECTOR('',#1003,1.);
#523=VECTOR('',#1008,1.);
#524=VECTOR('',#1009,1.);
#525=VECTOR('',#1010,1.);
#526=VECTOR('',#1011,1.);
#527=VECTOR('',#1014,1.);
#528=VECTOR('',#1015,1.);
#529=VECTOR('',#1016,1.);
#530=VECTOR('',#1017,1.);
#531=VECTOR('',#1022,1.);
#532=VECTOR('',#1023,1.);
#533=VECTOR('',#1024,1.);
#534=VECTOR('',#1027,1.);
#535=VECTOR('',#1028,1.);
#536=VECTOR('',#1029,1.);
#537=VECTOR('',#1034,1.);
#538=VECTOR('',#1035,1.);
#539=EDGE_LOOP('',(#67,#68,#69,#70));
#540=EDGE_LOOP('',(#71,#72,#73,#74));
#541=EDGE_LOOP('',(#75,#76,#77,#78));
#542=EDGE_LOOP('',(#79));
#543=EDGE_LOOP('',(#80));
#544=EDGE_LOOP('',(#81));
#545=EDGE_LOOP('',(#82));
#546=EDGE_LOOP('',(#83));
#547=EDGE_LOOP('',(#84));
#548=EDGE_LOOP('',(#85));
#549=EDGE_LOOP('',(#86));
#550=EDGE_LOOP('',(#87));
#551=EDGE_LOOP('',(#88));
#552=EDGE_LOOP('',(#89));
#553=EDGE_LOOP('',(#90));
#554=EDGE_LOOP('',(#91,#92,#93,#94));
#555=EDGE_LOOP('',(#95,#96,#97,#98));
#556=EDGE_LOOP('',(#99,#100,#101,#102));
#557=EDGE_LOOP('',(#103,#104,#105,#106));
#558=EDGE_LOOP('',(#107,#108,#109,#110));
#559=EDGE_LOOP('',(#111,#112,#113,#114));
#560=EDGE_LOOP('',(#115,#116,#117,#118));
#561=EDGE_LOOP('',(#119,#120,#121,#122));
#562=EDGE_LOOP('',(#123,#124,#125,#126));
#563=EDGE_LOOP('',(#127,#128,#129,#130));
#564=EDGE_LOOP('',(#131,#132,#133,#134));
#565=EDGE_LOOP('',(#135,#136,#137,#138));
#566=EDGE_LOOP('',(#139));
#567=EDGE_LOOP('',(#140));
#568=EDGE_LOOP('',(#141));
#569=EDGE_LOOP('',(#142));
#570=EDGE_LOOP('',(#143));
#571=EDGE_LOOP('',(#144));
#572=EDGE_LOOP('',(#145));
#573=EDGE_LOOP('',(#146));
#574=EDGE_LOOP('',(#147));
#575=EDGE_LOOP('',(#148));
#576=EDGE_LOOP('',(#149));
#577=EDGE_LOOP('',(#150));
#578=EDGE_LOOP('',(#151));
#579=EDGE_LOOP('',(#152));
#580=EDGE_LOOP('',(#153));
#581=EDGE_LOOP('',(#154));
#582=EDGE_LOOP('',(#155));
#583=EDGE_LOOP('',(#156));
#584=EDGE_LOOP('',(#157));
#585=EDGE_LOOP('',(#158));
#586=EDGE_LOOP('',(#159));
#587=EDGE_LOOP('',(#160));
#588=EDGE_LOOP('',(#161));
#589=EDGE_LOOP('',(#162));
#590=EDGE_LOOP('',(#163,#164,#165,#166));
#591=EDGE_LOOP('',(#167,#168,#169,#170));
#592=EDGE_LOOP('',(#171,#172,#173,#174));
#593=EDGE_LOOP('',(#175));
#594=EDGE_LOOP('',(#176));
#595=EDGE_LOOP('',(#177));
#596=EDGE_LOOP('',(#178));
#597=EDGE_LOOP('',(#179));
#598=EDGE_LOOP('',(#180));
#599=EDGE_LOOP('',(#181));
#600=EDGE_LOOP('',(#182));
#601=EDGE_LOOP('',(#183));
#602=EDGE_LOOP('',(#184));
#603=EDGE_LOOP('',(#185));
#604=EDGE_LOOP('',(#186));
#605=EDGE_LOOP('',(#187,#188,#189,#190));
#606=EDGE_LOOP('',(#191,#192,#193,#194));
#607=EDGE_LOOP('',(#195,#196,#197,#198));
#608=EDGE_LOOP('',(#199,#200,#201,#202));
#609=EDGE_LOOP('',(#203));
#610=EDGE_LOOP('',(#204,#205,#206,#207));
#611=EDGE_LOOP('',(#208,#209,#210,#211));
#612=EDGE_LOOP('',(#212));
#613=EDGE_LOOP('',(#213,#214,#215,#216));
#614=EDGE_LOOP('',(#217,#218,#219,#220));
#615=EDGE_LOOP('',(#221));
#616=EDGE_LOOP('',(#222));
#617=EDGE_LOOP('',(#223,#224,#225,#226));
#618=EDGE_LOOP('',(#227,#228,#229,#230));
#619=EDGE_LOOP('',(#231,#232,#233,#234));
#620=EDGE_LOOP('',(#235,#236,#237,#238));
#621=EDGE_LOOP('',(#239,#240,#241,#242));
#622=EDGE_LOOP('',(#243,#244,#245,#246));
#623=EDGE_LOOP('',(#247,#248,#249,#250));
#624=EDGE_LOOP('',(#251,#252,#253,#254));
#625=FACE_BOUND('',#539,.T.);
#626=FACE_BOUND('',#540,.T.);
#627=FACE_BOUND('',#541,.T.);
#628=FACE_BOUND('',#542,.T.);
#629=FACE_BOUND('',#543,.T.);
#630=FACE_BOUND('',#544,.T.);
#631=FACE_BOUND('',#545,.T.);
#632=FACE_BOUND('',#546,.T.);
#633=FACE_BOUND('',#547,.T.);
#634=FACE_BOUND('',#548,.T.);
#635=FACE_BOUND('',#549,.T.);
#636=FACE_BOUND('',#550,.T.);
#637=FACE_BOUND('',#551,.T.);
#638=FACE_BOUND('',#552,.T.);
#639=FACE_BOUND('',#553,.T.);
#640=FACE_BOUND('',#554,.T.);
#641=FACE_BOUND('',#555,.T.);
#642=FACE_BOUND('',#556,.T.);
#643=FACE_BOUND('',#557,.T.);
#644=FACE_BOUND('',#558,.T.);
#645=FACE_BOUND('',#559,.T.);
#646=FACE_BOUND('',#560,.T.);
#647=FACE_BOUND('',#561,.T.);
#648=FACE_BOUND('',#562,.T.);
#649=FACE_BOUND('',#563,.T.);
#650=FACE_BOUND('',#564,.T.);
#651=FACE_BOUND('',#565,.T.);
#652=FACE_BOUND('',#566,.T.);
#653=FACE_BOUND('',#567,.T.);
#654=FACE_BOUND('',#568,.T.);
#655=FACE_BOUND('',#569,.T.);
#656=FACE_BOUND('',#570,.T.);
#657=FACE_BOUND('',#571,.T.);
#658=FACE_BOUND('',#572,.T.);
#659=FACE_BOUND('',#573,.T.);
#660=FACE_BOUND('',#574,.T.);
#661=FACE_BOUND('',#575,.T.);
#662=FACE_BOUND('',#576,.T.);
#663=FACE_BOUND('',#577,.T.);
#664=FACE_BOUND('',#578,.T.);
#665=FACE_BOUND('',#579,.T.);
#666=FACE_BOUND('',#580,.T.);
#667=FACE_BOUND('',#581,.T.);
#668=FACE_BOUND('',#582,.T.);
#669=FACE_BOUND('',#583,.T.);
#670=FACE_BOUND('',#584,.T.);
#671=FACE_BOUND('',#585,.T.);
#672=FACE_BOUND('',#586,.T.);
#673=FACE_BOUND('',#587,.T.);
#674=FACE_BOUND('',#588,.T.);
#675=FACE_BOUND('',#589,.T.);
#676=FACE_BOUND('',#590,.T.);
#677=FACE_BOUND('',#591,.T.);
#678=FACE_BOUND('',#592,.T.);
#679=FACE_BOUND('',#593,.T.);
#680=FACE_BOUND('',#594,.T.);
#681=FACE_BOUND('',#595,.T.);
#682=FACE_BOUND('',#596,.T.);
#683=FACE_BOUND('',#597,.T.);
#684=FACE_BOUND('',#598,.T.);
#685=FACE_BOUND('',#599,.T.);
#686=FACE_BOUND('',#600,.T.);
#687=FACE_BOUND('',#601,.T.);
#688=FACE_BOUND('',#602,.T.);
#689=FACE_BOUND('',#603,.T.);
#690=FACE_BOUND('',#604,.T.);
#691=FACE_BOUND('',#605,.T.);
#692=FACE_BOUND('',#606,.T.);
#693=FACE_BOUND('',#607,.T.);
#694=FACE_BOUND('',#608,.T.);
#695=FACE_BOUND('',#609,.T.);
#696=FACE_BOUND('',#610,.T.);
#697=FACE_BOUND('',#611,.T.);
#698=FACE_BOUND('',#612,.T.);
#699=FACE_BOUND('',#613,.T.);
#700=FACE_BOUND('',#614,.T.);
#701=FACE_BOUND('',#615,.T.);
#702=FACE_BOUND('',#616,.T.);
#703=FACE_BOUND('',#617,.T.);
#704=FACE_BOUND('',#618,.T.);
#705=FACE_BOUND('',#619,.T.);
#706=FACE_BOUND('',#620,.T.);
#707=FACE_BOUND('',#621,.T.);
#708=FACE_BOUND('',#622,.T.);
#709=FACE_BOUND('',#623,.T.);
#710=FACE_BOUND('',#624,.T.);
#711=PLANE('',#785);
#712=PLANE('',#798);
#713=PLANE('',#799);
#714=PLANE('',#800);
#715=PLANE('',#801);
#716=PLANE('',#802);
#717=PLANE('',#803);
#718=PLANE('',#804);
#719=PLANE('',#805);
#720=PLANE('',#806);
#721=PLANE('',#807);
#722=PLANE('',#832);
#723=PLANE('',#833);
#724=PLANE('',#834);
#725=PLANE('',#835);
#726=PLANE('',#836);
#727=PLANE('',#837);
#728=PLANE('',#839);
#729=PLANE('',#840);
#730=PLANE('',#842);
#731=ADVANCED_FACE('',(#625,#626,#627,#628,#629,#630,#631,#632,#633,#634,
#635,#636,#637,#638,#639,#640,#641),#711,.T.);
#732=ADVANCED_FACE('',(#642),#712,.F.);
#733=ADVANCED_FACE('',(#643),#713,.T.);
#734=ADVANCED_FACE('',(#644),#714,.T.);
#735=ADVANCED_FACE('',(#645),#715,.T.);
#736=ADVANCED_FACE('',(#646),#716,.T.);
#737=ADVANCED_FACE('',(#647),#717,.F.);
#738=ADVANCED_FACE('',(#648),#718,.F.);
#739=ADVANCED_FACE('',(#649),#719,.F.);
#740=ADVANCED_FACE('',(#650),#720,.F.);
#741=ADVANCED_FACE('',(#651),#721,.F.);
#742=ADVANCED_FACE('',(#652,#653),#20,.F.);
#743=ADVANCED_FACE('',(#654,#655),#21,.F.);
#744=ADVANCED_FACE('',(#656,#657),#22,.F.);
#745=ADVANCED_FACE('',(#658,#659),#23,.F.);
#746=ADVANCED_FACE('',(#660,#661),#24,.F.);
#747=ADVANCED_FACE('',(#662,#663),#25,.F.);
#748=ADVANCED_FACE('',(#664,#665),#26,.F.);
#749=ADVANCED_FACE('',(#666,#667),#27,.F.);
#750=ADVANCED_FACE('',(#668,#669),#28,.F.);
#751=ADVANCED_FACE('',(#670,#671),#29,.F.);
#752=ADVANCED_FACE('',(#672,#673),#30,.F.);
#753=ADVANCED_FACE('',(#674,#675),#31,.F.);
#754=ADVANCED_FACE('',(#676),#722,.T.);
#755=ADVANCED_FACE('',(#677),#723,.F.);
#756=ADVANCED_FACE('',(#678,#679,#680,#681,#682,#683,#684,#685,#686,#687,
#688,#689,#690,#691,#692),#724,.F.);
#757=ADVANCED_FACE('',(#693),#725,.T.);
#758=ADVANCED_FACE('',(#694),#726,.F.);
#759=ADVANCED_FACE('',(#695,#696),#727,.F.);
#760=ADVANCED_FACE('',(#697),#728,.T.);
#761=ADVANCED_FACE('',(#698,#699),#729,.T.);
#762=ADVANCED_FACE('',(#700),#730,.T.);
#763=ADVANCED_FACE('',(#701,#702),#32,.F.);
#764=ADVANCED_FACE('',(#703),#33,.F.);
#765=ADVANCED_FACE('',(#704),#34,.F.);
#766=ADVANCED_FACE('',(#705),#35,.F.);
#767=ADVANCED_FACE('',(#706),#36,.F.);
#768=ADVANCED_FACE('',(#707),#37,.F.);
#769=ADVANCED_FACE('',(#708),#38,.F.);
#770=ADVANCED_FACE('',(#709),#39,.F.);
#771=ADVANCED_FACE('',(#710),#40,.F.);
#772=CLOSED_SHELL('',(#731,#732,#733,#734,#735,#736,#737,#738,#739,#740,
#741,#742,#743,#744,#745,#746,#747,#748,#749,#750,#751,#752,#753,#754,#755,
#756,#757,#758,#759,#760,#761,#762,#763,#764,#765,#766,#767,#768,#769,#770,
#771));
#773=STYLED_ITEM('',(#774),#781);
#774=PRESENTATION_STYLE_ASSIGNMENT((#775));
#775=SURFACE_STYLE_USAGE(.BOTH.,#776);
#776=SURFACE_SIDE_STYLE('',(#777));
#777=SURFACE_STYLE_FILL_AREA(#778);
#778=FILL_AREA_STYLE('',(#779));
#779=FILL_AREA_STYLE_COLOUR('',#780);
#780=COLOUR_RGB('',0.615686274509804,0.811764705882353,0.929411764705882);
#781=MANIFOLD_SOLID_BREP('Part 1',#772);
#782=SHAPE_DEFINITION_REPRESENTATION(#1284,#783);
#783=SHAPE_REPRESENTATION('Part 1',(#784),#1279);
#784=AXIS2_PLACEMENT_3D('',#1072,#860,#861);
#785=AXIS2_PLACEMENT_3D('',#1073,#862,#863);
#786=AXIS2_PLACEMENT_3D('',#1098,#876,#877);
#787=AXIS2_PLACEMENT_3D('',#1100,#878,#879);
#788=AXIS2_PLACEMENT_3D('',#1102,#880,#881);
#789=AXIS2_PLACEMENT_3D('',#1104,#882,#883);
#790=AXIS2_PLACEMENT_3D('',#1106,#884,#885);
#791=AXIS2_PLACEMENT_3D('',#1108,#886,#887);
#792=AXIS2_PLACEMENT_3D('',#1110,#888,#889);
#793=AXIS2_PLACEMENT_3D('',#1112,#890,#891);
#794=AXIS2_PLACEMENT_3D('',#1114,#892,#893);
#795=AXIS2_PLACEMENT_3D('',#1116,#894,#895);
#796=AXIS2_PLACEMENT_3D('',#1118,#896,#897);
#797=AXIS2_PLACEMENT_3D('',#1120,#898,#899);
#798=AXIS2_PLACEMENT_3D('',#1138,#908,#909);
#799=AXIS2_PLACEMENT_3D('',#1144,#913,#914);
#800=AXIS2_PLACEMENT_3D('',#1148,#917,#918);
#801=AXIS2_PLACEMENT_3D('',#1152,#921,#922);
#802=AXIS2_PLACEMENT_3D('',#1158,#926,#927);
#803=AXIS2_PLACEMENT_3D('',#1162,#930,#931);
#804=AXIS2_PLACEMENT_3D('',#1166,#934,#935);
#805=AXIS2_PLACEMENT_3D('',#1172,#939,#940);
#806=AXIS2_PLACEMENT_3D('',#1176,#943,#944);
#807=AXIS2_PLACEMENT_3D('',#1180,#947,#948);
#808=AXIS2_PLACEMENT_3D('',#1182,#950,#951);
#809=AXIS2_PLACEMENT_3D('',#1183,#952,#953);
#810=AXIS2_PLACEMENT_3D('',#1185,#954,#955);
#811=AXIS2_PLACEMENT_3D('',#1186,#956,#957);
#812=AXIS2_PLACEMENT_3D('',#1188,#958,#959);
#813=AXIS2_PLACEMENT_3D('',#1189,#960,#961);
#814=AXIS2_PLACEMENT_3D('',#1191,#962,#963);
#815=AXIS2_PLACEMENT_3D('',#1192,#964,#965);
#816=AXIS2_PLACEMENT_3D('',#1194,#966,#967);
#817=AXIS2_PLACEMENT_3D('',#1195,#968,#969);
#818=AXIS2_PLACEMENT_3D('',#1197,#970,#971);
#819=AXIS2_PLACEMENT_3D('',#1198,#972,#973);
#820=AXIS2_PLACEMENT_3D('',#1200,#974,#975);
#821=AXIS2_PLACEMENT_3D('',#1201,#976,#977);
#822=AXIS2_PLACEMENT_3D('',#1203,#978,#979);
#823=AXIS2_PLACEMENT_3D('',#1204,#980,#981);
#824=AXIS2_PLACEMENT_3D('',#1206,#982,#983);
#825=AXIS2_PLACEMENT_3D('',#1207,#984,#985);
#826=AXIS2_PLACEMENT_3D('',#1209,#986,#987);
#827=AXIS2_PLACEMENT_3D('',#1210,#988,#989);
#828=AXIS2_PLACEMENT_3D('',#1212,#990,#991);
#829=AXIS2_PLACEMENT_3D('',#1213,#992,#993);
#830=AXIS2_PLACEMENT_3D('',#1215,#994,#995);
#831=AXIS2_PLACEMENT_3D('',#1216,#996,#997);
#832=AXIS2_PLACEMENT_3D('',#1218,#998,#999);
#833=AXIS2_PLACEMENT_3D('',#1220,#1001,#1002);
#834=AXIS2_PLACEMENT_3D('',#1222,#1004,#1005);
#835=AXIS2_PLACEMENT_3D('',#1223,#1006,#1007);
#836=AXIS2_PLACEMENT_3D('',#1232,#1012,#1013);
#837=AXIS2_PLACEMENT_3D('',#1241,#1018,#1019);
#838=AXIS2_PLACEMENT_3D('',#1242,#1020,#1021);
#839=AXIS2_PLACEMENT_3D('',#1249,#1025,#1026);
#840=AXIS2_PLACEMENT_3D('',#1255,#1030,#1031);
#841=AXIS2_PLACEMENT_3D('',#1256,#1032,#1033);
#842=AXIS2_PLACEMENT_3D('',#1260,#1036,#1037);
#843=AXIS2_PLACEMENT_3D('',#1261,#1038,#1039);
#844=AXIS2_PLACEMENT_3D('',#1262,#1040,#1041);
#845=AXIS2_PLACEMENT_3D('',#1263,#1042,#1043);
#846=AXIS2_PLACEMENT_3D('',#1264,#1044,#1045);
#847=AXIS2_PLACEMENT_3D('',#1265,#1046,#1047);
#848=AXIS2_PLACEMENT_3D('',#1266,#1048,#1049);
#849=AXIS2_PLACEMENT_3D('',#1267,#1050,#1051);
#850=AXIS2_PLACEMENT_3D('',#1268,#1052,#1053);
#851=AXIS2_PLACEMENT_3D('',#1269,#1054,#1055);
#852=AXIS2_PLACEMENT_3D('',#1270,#1056,#1057);
#853=AXIS2_PLACEMENT_3D('',#1271,#1058,#1059);
#854=AXIS2_PLACEMENT_3D('',#1272,#1060,#1061);
#855=AXIS2_PLACEMENT_3D('',#1273,#1062,#1063);
#856=AXIS2_PLACEMENT_3D('',#1274,#1064,#1065);
#857=AXIS2_PLACEMENT_3D('',#1275,#1066,#1067);
#858=AXIS2_PLACEMENT_3D('',#1276,#1068,#1069);
#859=AXIS2_PLACEMENT_3D('',#1277,#1070,#1071);
#860=DIRECTION('',(0.,0.,1.));
#861=DIRECTION('',(1.,0.,0.));
#862=DIRECTION('',(0.,0.,1.));
#863=DIRECTION('',(1.,0.,0.));
#864=DIRECTION('',(0.,-1.,0.));
#865=DIRECTION('',(-1.,-1.98254111540206E-16,0.));
#866=DIRECTION('',(0.,-1.,0.));
#867=DIRECTION('',(-1.,0.,0.));
#868=DIRECTION('',(0.,-1.,0.));
#869=DIRECTION('',(-1.,-1.24231498930631E-16,0.));
#870=DIRECTION('',(0.,-1.,0.));
#871=DIRECTION('',(-1.,0.,0.));
#872=DIRECTION('',(-1.,0.,0.));
#873=DIRECTION('',(0.,-1.,0.));
#874=DIRECTION('',(1.,1.26161707343768E-16,0.));
#875=DIRECTION('',(0.,-1.,0.));
#876=DIRECTION('',(0.,0.,1.));
#877=DIRECTION('',(1.,0.,0.));
#878=DIRECTION('',(0.,0.,1.));
#879=DIRECTION('',(1.,0.,0.));
#880=DIRECTION('',(0.,0.,1.));
#881=DIRECTION('',(1.,0.,0.));
#882=DIRECTION('',(0.,0.,1.));
#883=DIRECTION('',(1.,0.,0.));
#884=DIRECTION('',(0.,0.,1.));
#885=DIRECTION('',(1.,0.,0.));
#886=DIRECTION('',(0.,0.,1.));
#887=DIRECTION('',(1.,0.,0.));
#888=DIRECTION('',(0.,0.,1.));
#889=DIRECTION('',(1.,0.,0.));
#890=DIRECTION('',(0.,0.,1.));
#891=DIRECTION('',(1.,0.,0.));
#892=DIRECTION('',(0.,0.,1.));
#893=DIRECTION('',(1.,0.,0.));
#894=DIRECTION('',(0.,0.,1.));
#895=DIRECTION('',(1.,0.,0.));
#896=DIRECTION('',(0.,0.,1.));
#897=DIRECTION('',(1.,0.,0.));
#898=DIRECTION('',(0.,0.,1.));
#899=DIRECTION('',(1.,0.,0.));
#900=DIRECTION('',(1.,3.95627356413128E-16,0.));
#901=DIRECTION('',(0.,-1.,0.));
#902=DIRECTION('',(1.,3.95627356413128E-16,0.));
#903=DIRECTION('',(0.,-1.,0.));
#904=DIRECTION('',(1.,0.,0.));
#905=DIRECTION('',(0.,1.,0.));
#906=DIRECTION('',(1.,0.,0.));
#907=DIRECTION('',(0.,1.,0.));
#908=DIRECTION('',(0.,-1.,0.));
#909=DIRECTION('',(0.,0.,-1.));
#910=DIRECTION('',(0.,0.,1.));
#911=DIRECTION('',(1.,0.,0.));
#912=DIRECTION('',(0.,0.,1.));
#913=DIRECTION('',(1.,0.,0.));
#914=DIRECTION('',(0.,0.,-1.));
#915=DIRECTION('',(0.,1.,0.));
#916=DIRECTION('',(0.,0.,1.));
#917=DIRECTION('',(0.,-1.,0.));
#918=DIRECTION('',(0.,0.,-1.));
#919=DIRECTION('',(1.,0.,0.));
#920=DIRECTION('',(0.,0.,1.));
#921=DIRECTION('',(3.95627356413128E-16,-1.,0.));
#922=DIRECTION('',(1.,3.95627356413128E-16,0.));
#923=DIRECTION('',(0.,0.,1.));
#924=DIRECTION('',(1.,3.95627356413128E-16,0.));
#925=DIRECTION('',(0.,0.,1.));
#926=DIRECTION('',(-1.,0.,0.));
#927=DIRECTION('',(0.,0.,1.));
#928=DIRECTION('',(0.,-1.,0.));
#929=DIRECTION('',(0.,0.,1.));
#930=DIRECTION('',(3.95627356413128E-16,-1.,0.));
#931=DIRECTION('',(1.,3.95627356413128E-16,0.));
#932=DIRECTION('',(1.,3.95627356413128E-16,0.));
#933=DIRECTION('',(0.,0.,1.));
#934=DIRECTION('',(0.,1.,0.));
#935=DIRECTION('',(0.,0.,1.));
#936=DIRECTION('',(0.,0.,1.));
#937=DIRECTION('',(-1.,0.,0.));
#938=DIRECTION('',(0.,0.,1.));
#939=DIRECTION('',(-1.,0.,0.));
#940=DIRECTION('',(0.,0.,1.));
#941=DIRECTION('',(0.,-1.,0.));
#942=DIRECTION('',(0.,0.,1.));
#943=DIRECTION('',(1.26161707343768E-16,-1.,0.));
#944=DIRECTION('',(1.,1.26161707343768E-16,0.));
#945=DIRECTION('',(1.,1.26161707343768E-16,0.));
#946=DIRECTION('',(0.,0.,1.));
#947=DIRECTION('',(-1.,0.,0.));
#948=DIRECTION('',(0.,0.,1.));
#949=DIRECTION('',(0.,-1.,0.));
#950=DIRECTION('',(0.,0.,1.));
#951=DIRECTION('',(1.,0.,0.));
#952=DIRECTION('',(0.,0.,1.));
#953=DIRECTION('',(1.,0.,0.));
#954=DIRECTION('',(0.,0.,1.));
#955=DIRECTION('',(1.,0.,0.));
#956=DIRECTION('',(0.,0.,1.));
#957=DIRECTION('',(1.,0.,0.));
#958=DIRECTION('',(0.,0.,1.));
#959=DIRECTION('',(1.,0.,0.));
#960=DIRECTION('',(0.,0.,1.));
#961=DIRECTION('',(1.,0.,0.));
#962=DIRECTION('',(0.,0.,1.));
#963=DIRECTION('',(1.,0.,0.));
#964=DIRECTION('',(0.,0.,1.));
#965=DIRECTION('',(1.,0.,0.));
#966=DIRECTION('',(0.,0.,1.));
#967=DIRECTION('',(1.,0.,0.));
#968=DIRECTION('',(0.,0.,1.));
#969=DIRECTION('',(1.,0.,0.));
#970=DIRECTION('',(0.,0.,1.));
#971=DIRECTION('',(1.,0.,0.));
#972=DIRECTION('',(0.,0.,1.));
#973=DIRECTION('',(1.,0.,0.));
#974=DIRECTION('',(0.,0.,1.));
#975=DIRECTION('',(1.,0.,0.));
#976=DIRECTION('',(0.,0.,1.));
#977=DIRECTION('',(1.,0.,0.));
#978=DIRECTION('',(0.,0.,1.));
#979=DIRECTION('',(1.,0.,0.));
#980=DIRECTION('',(0.,0.,1.));
#981=DIRECTION('',(1.,0.,0.));
#982=DIRECTION('',(0.,0.,1.));
#983=DIRECTION('',(1.,0.,0.));
#984=DIRECTION('',(0.,0.,1.));
#985=DIRECTION('',(1.,0.,0.));
#986=DIRECTION('',(0.,0.,1.));
#987=DIRECTION('',(1.,0.,0.));
#988=DIRECTION('',(0.,0.,1.));
#989=DIRECTION('',(1.,0.,0.));
#990=DIRECTION('',(0.,0.,1.));
#991=DIRECTION('',(1.,0.,0.));
#992=DIRECTION('',(0.,0.,1.));
#993=DIRECTION('',(1.,0.,0.));
#994=DIRECTION('',(0.,0.,1.));
#995=DIRECTION('',(1.,0.,0.));
#996=DIRECTION('',(0.,0.,1.));
#997=DIRECTION('',(1.,0.,0.));
#998=DIRECTION('',(-1.,0.,0.));
#999=DIRECTION('',(0.,0.,1.));
#1000=DIRECTION('',(0.,-1.,0.));
#1001=DIRECTION('',(1.,0.,0.));
#1002=DIRECTION('',(0.,0.,-1.));
#1003=DIRECTION('',(0.,1.,0.));
#1004=DIRECTION('',(0.,0.,1.));
#1005=DIRECTION('',(1.,0.,0.));
#1006=DIRECTION('',(0.,0.,1.));
#1007=DIRECTION('',(1.,0.,0.));
#1008=DIRECTION('',(1.,0.,0.));
#1009=DIRECTION('',(0.,1.,0.));
#1010=DIRECTION('',(-1.,-1.98254111540206E-16,0.));
#1011=DIRECTION('',(0.,-1.,0.));
#1012=DIRECTION('',(1.24231498930631E-16,-1.,0.));
#1013=DIRECTION('',(1.,1.24231498930631E-16,0.));
#1014=DIRECTION('',(0.,0.,-1.));
#1015=DIRECTION('',(-1.,-1.24231498930631E-16,0.));
#1016=DIRECTION('',(0.,0.,-1.));
#1017=DIRECTION('',(-1.,-1.24231498930631E-16,0.));
#1018=DIRECTION('',(1.,0.,0.));
#1019=DIRECTION('',(0.,0.,-1.));
#1020=DIRECTION('',(-1.,0.,0.));
#1021=DIRECTION('',(0.,0.,1.));
#1022=DIRECTION('',(0.,-1.,0.));
#1023=DIRECTION('',(0.,0.,-1.));
#1024=DIRECTION('',(0.,-1.,0.));
#1025=DIRECTION('',(0.,-1.,0.));
#1026=DIRECTION('',(0.,0.,-1.));
#1027=DIRECTION('',(-1.,0.,0.));
#1028=DIRECTION('',(0.,0.,-1.));
#1029=DIRECTION('',(-1.,0.,0.));
#1030=DIRECTION('',(1.,0.,0.));
#1031=DIRECTION('',(0.,0.,-1.));
#1032=DIRECTION('',(1.,0.,0.));
#1033=DIRECTION('',(0.,0.,-1.));
#1034=DIRECTION('',(0.,-1.,0.));
#1035=DIRECTION('',(0.,-1.,0.));
#1036=DIRECTION('',(0.,0.,1.));
#1037=DIRECTION('',(1.,0.,0.));
#1038=DIRECTION('',(-1.,0.,0.));
#1039=DIRECTION('',(0.,0.,1.));
#1040=DIRECTION('',(1.,0.,0.));
#1041=DIRECTION('',(0.,0.,-1.));
#1042=DIRECTION('',(0.707106781186548,-0.707106781186548,0.));
#1043=DIRECTION('',(-0.707106781186548,-0.707106781186548,0.));
#1044=DIRECTION('',(0.707106781186548,0.707106781186548,0.));
#1045=DIRECTION('',(0.707106781186548,-0.707106781186548,0.));
#1046=DIRECTION('',(0.,1.,0.));
#1047=DIRECTION('',(0.,0.,1.));
#1048=DIRECTION('',(-0.707106781186548,0.707106781186548,0.));
#1049=DIRECTION('',(-0.707106781186548,-0.707106781186548,0.));
#1050=DIRECTION('',(0.,-1.,0.));
#1051=DIRECTION('',(0.,0.,-1.));
#1052=DIRECTION('',(-0.707106781186548,-0.707106781186548,0.));
#1053=DIRECTION('',(-0.707106781186548,0.707106781186548,0.));
#1054=DIRECTION('',(-1.,-1.98254111540206E-16,0.));
#1055=DIRECTION('',(1.98254111540206E-16,-1.,0.));
#1056=DIRECTION('',(1.,0.,0.));
#1057=DIRECTION('',(0.,0.,-1.));
#1058=DIRECTION('',(0.707106781186548,-0.707106781186548,0.));
#1059=DIRECTION('',(0.707106781186548,0.707106781186548,0.));
#1060=DIRECTION('',(0.707106781186548,0.707106781186548,0.));
#1061=DIRECTION('',(0.707106781186548,-0.707106781186548,0.));
#1062=DIRECTION('',(0.,1.,0.));
#1063=DIRECTION('',(0.,0.,1.));
#1064=DIRECTION('',(-0.707106781186548,0.707106781186548,0.));
#1065=DIRECTION('',(0.707106781186548,0.707106781186548,0.));
#1066=DIRECTION('',(0.,-1.,0.));
#1067=DIRECTION('',(0.,0.,-1.));
#1068=DIRECTION('',(-0.707106781186548,-0.707106781186548,0.));
#1069=DIRECTION('',(0.707106781186548,-0.707106781186548,0.));
#1070=DIRECTION('',(-1.,-1.24231498930631E-16,0.));
#1071=DIRECTION('',(1.24231498930631E-16,-1.,0.));
#1072=CARTESIAN_POINT('',(0.,0.,0.));
#1073=CARTESIAN_POINT('',(-6.93889390390723E-18,-0.02,0.));
#1074=CARTESIAN_POINT('',(-0.0505,-0.02,0.));
#1075=CARTESIAN_POINT('',(-0.0505,-0.0499244296364486,0.));
#1076=CARTESIAN_POINT('',(-0.0505,-0.0149244296364486,0.));
#1077=CARTESIAN_POINT('',(-7.94514659689291E-18,-0.0149244296364486,0.));
#1078=CARTESIAN_POINT('',(-0.0045,-0.0149244296364486,0.));
#1079=CARTESIAN_POINT('',(-0.0045,-0.0444244296364486,0.));
#1080=CARTESIAN_POINT('',(-0.0045,-0.0499244296364486,0.));
#1081=CARTESIAN_POINT('',(-0.045,-0.0499244296364486,0.));
#1082=CARTESIAN_POINT('',(-0.0015,-0.02,0.));
#1083=CARTESIAN_POINT('',(-0.0015,-0.0104147004550857,0.));
#1084=CARTESIAN_POINT('',(-0.0015,0.00556584118218849,0.));
#1085=CARTESIAN_POINT('',(-1.01149766753929E-17,0.0055658411821885,0.));
#1086=CARTESIAN_POINT('',(0.0155,0.0055658411821885,0.));
#1087=CARTESIAN_POINT('',(0.0155,-0.00491470045508574,0.));
#1088=CARTESIAN_POINT('',(0.0155,-0.0104147004550857,0.));
#1089=CARTESIAN_POINT('',(0.004,-0.0104147004550857,0.));
#1090=CARTESIAN_POINT('',(-6.93889390390723E-18,-0.06,0.));
#1091=CARTESIAN_POINT('',(0.055,-0.06,0.));
#1092=CARTESIAN_POINT('',(-0.055,-0.06,0.));
#1093=CARTESIAN_POINT('',(0.055,-0.02,0.));
#1094=CARTESIAN_POINT('',(0.055,0.02,0.));
#1095=CARTESIAN_POINT('',(-2.08166817117217E-17,0.02,0.));
#1096=CARTESIAN_POINT('',(-0.055,0.02,0.));
#1097=CARTESIAN_POINT('',(-0.055,-0.02,0.));
#1098=CARTESIAN_POINT('',(-0.05,-0.055,0.));
#1099=CARTESIAN_POINT('',(-0.0485,-0.055,0.));
#1100=CARTESIAN_POINT('',(0.05,-0.055,0.));
#1101=CARTESIAN_POINT('',(0.0515,-0.055,0.));
#1102=CARTESIAN_POINT('',(-0.05,0.015,0.));
#1103=CARTESIAN_POINT('',(-0.0485,0.015,0.));
#1104=CARTESIAN_POINT('',(0.05,0.015,0.));
#1105=CARTESIAN_POINT('',(0.0515,0.015,0.));
#1106=CARTESIAN_POINT('',(0.017,-0.00242442963644862,0.));
#1107=CARTESIAN_POINT('',(0.018,-0.00242442963644862,0.));
#1108=CARTESIAN_POINT('',(0.027,-0.00242442963644862,0.));
#1109=CARTESIAN_POINT('',(0.028,-0.00242442963644862,0.));
#1110=CARTESIAN_POINT('',(0.037,-0.00242442963644862,0.));
#1111=CARTESIAN_POINT('',(0.038,-0.00242442963644862,0.));
#1112=CARTESIAN_POINT('',(0.047,-0.00242442963644862,0.));
#1113=CARTESIAN_POINT('',(0.048,-0.00242442963644862,0.));
#1114=CARTESIAN_POINT('',(-0.003,-0.00242442963644862,0.));
#1115=CARTESIAN_POINT('',(-0.002,-0.00242442963644862,0.));
#1116=CARTESIAN_POINT('',(-0.013,-0.00242442963644862,0.));
#1117=CARTESIAN_POINT('',(-0.012,-0.00242442963644862,0.));
#1118=CARTESIAN_POINT('',(-0.023,-0.00242442963644862,0.));
#1119=CARTESIAN_POINT('',(-0.022,-0.00242442963644862,0.));
#1120=CARTESIAN_POINT('',(-0.033,-0.00242442963644862,0.));
#1121=CARTESIAN_POINT('',(-0.032,-0.00242442963644862,0.));
#1122=CARTESIAN_POINT('',(-0.0274610361456871,-0.0504244296364486,0.));
#1123=CARTESIAN_POINT('',(-0.045,-0.0504244296364486,0.));
#1124=CARTESIAN_POINT('',(-0.00992207229137421,-0.0504244296364486,0.));
#1125=CARTESIAN_POINT('',(-0.0099220722913742,-0.0519244296364486,0.));
#1126=CARTESIAN_POINT('',(-0.00992207229137421,-0.0534244296364486,0.));
#1127=CARTESIAN_POINT('',(-0.0274610361456871,-0.0534244296364486,0.));
#1128=CARTESIAN_POINT('',(-0.045,-0.0534244296364486,0.));
#1129=CARTESIAN_POINT('',(-0.045,-0.0519244296364486,0.));
#1130=CARTESIAN_POINT('',(-0.0274610361456871,-0.0144244296364486,0.));
#1131=CARTESIAN_POINT('',(-0.045,-0.0144244296364486,0.));
#1132=CARTESIAN_POINT('',(-0.00992207229137421,-0.0144244296364486,0.));
#1133=CARTESIAN_POINT('',(-0.045,-0.0129244296364486,0.));
#1134=CARTESIAN_POINT('',(-0.045,-0.0114244296364486,0.));
#1135=CARTESIAN_POINT('',(-0.0274610361456871,-0.0114244296364486,0.));
#1136=CARTESIAN_POINT('',(-0.00992207229137421,-0.0114244296364486,0.));
#1137=CARTESIAN_POINT('',(-0.00992207229137421,-0.0129244296364486,0.));
#1138=CARTESIAN_POINT('',(-0.0274610361456871,-0.0144244296364486,-0.002));
#1139=CARTESIAN_POINT('',(-0.00992207229137421,-0.0144244296364486,-0.002));
#1140=CARTESIAN_POINT('',(-0.00992207229137421,-0.0144244296364486,-0.002));
#1141=CARTESIAN_POINT('',(-0.0274610361456871,-0.0144244296364486,-0.002));
#1142=CARTESIAN_POINT('',(-0.045,-0.0144244296364486,-0.002));
#1143=CARTESIAN_POINT('',(-0.045,-0.0144244296364486,-0.002));
#1144=CARTESIAN_POINT('',(-0.045,-0.0129244296364486,-0.002));
#1145=CARTESIAN_POINT('',(-0.045,-0.0129244296364486,-0.002));
#1146=CARTESIAN_POINT('',(-0.045,-0.0114244296364486,-0.002));
#1147=CARTESIAN_POINT('',(-0.045,-0.0114244296364486,-0.002));
#1148=CARTESIAN_POINT('',(-0.0274610361456871,-0.0114244296364486,-0.002));
#1149=CARTESIAN_POINT('',(-0.0274610361456871,-0.0114244296364486,-0.002));
#1150=CARTESIAN_POINT('',(-0.00992207229137421,-0.0114244296364486,-0.002));
#1151=CARTESIAN_POINT('',(-0.00992207229137421,-0.0114244296364486,-0.002));
#1152=CARTESIAN_POINT('',(-0.0274610361456871,-0.0504244296364486,-0.002));
#1153=CARTESIAN_POINT('',(-0.045,-0.0504244296364486,-0.002));
#1154=CARTESIAN_POINT('',(-0.045,-0.0504244296364486,-0.002));
#1155=CARTESIAN_POINT('',(-0.0274610361456871,-0.0504244296364486,-0.002));
#1156=CARTESIAN_POINT('',(-0.00992207229137421,-0.0504244296364486,-0.002));
#1157=CARTESIAN_POINT('',(-0.00992207229137421,-0.0504244296364486,-0.002));
#1158=CARTESIAN_POINT('',(-0.0099220722913742,-0.0519244296364486,-0.002));
#1159=CARTESIAN_POINT('',(-0.0099220722913742,-0.0519244296364486,-0.002));
#1160=CARTESIAN_POINT('',(-0.00992207229137421,-0.0534244296364486,-0.002));
#1161=CARTESIAN_POINT('',(-0.00992207229137421,-0.0534244296364486,-0.002));
#1162=CARTESIAN_POINT('',(-0.0274610361456871,-0.0534244296364486,-0.002));
#1163=CARTESIAN_POINT('',(-0.0274610361456871,-0.0534244296364486,-0.002));
#1164=CARTESIAN_POINT('',(-0.045,-0.0534244296364486,-0.002));
#1165=CARTESIAN_POINT('',(-0.045,-0.0534244296364486,-0.002));
#1166=CARTESIAN_POINT('',(-6.93889390390723E-18,-0.06,-0.002));
#1167=CARTESIAN_POINT('',(-0.055,-0.06,-0.002));
#1168=CARTESIAN_POINT('',(-0.055,-0.06,-0.002));
#1169=CARTESIAN_POINT('',(-6.93889390390723E-18,-0.06,-0.002));
#1170=CARTESIAN_POINT('',(0.055,-0.06,-0.002));
#1171=CARTESIAN_POINT('',(0.055,-0.06,-0.002));
#1172=CARTESIAN_POINT('',(0.055,-0.02,-0.002));
#1173=CARTESIAN_POINT('',(0.055,-0.02,-0.002));
#1174=CARTESIAN_POINT('',(0.055,0.02,-0.002));
#1175=CARTESIAN_POINT('',(0.055,0.02,-0.002));
#1176=CARTESIAN_POINT('',(-2.08166817117217E-17,0.02,-0.002));
#1177=CARTESIAN_POINT('',(-2.08166817117217E-17,0.02,-0.002));
#1178=CARTESIAN_POINT('',(-0.055,0.02,-0.002));
#1179=CARTESIAN_POINT('',(-0.055,0.02,-0.002));
#1180=CARTESIAN_POINT('',(-0.045,-0.0519244296364486,-0.002));
#1181=CARTESIAN_POINT('',(-0.045,-0.0519244296364486,-0.002));
#1182=CARTESIAN_POINT('',(-0.033,-0.00242442963644862,-0.002));
#1183=CARTESIAN_POINT('',(-0.033,-0.00242442963644862,-0.002));
#1184=CARTESIAN_POINT('',(-0.032,-0.00242442963644862,-0.002));
#1185=CARTESIAN_POINT('',(-0.023,-0.00242442963644862,-0.002));
#1186=CARTESIAN_POINT('',(-0.023,-0.00242442963644862,-0.002));
#1187=CARTESIAN_POINT('',(-0.022,-0.00242442963644862,-0.002));
#1188=CARTESIAN_POINT('',(-0.013,-0.00242442963644862,-0.002));
#1189=CARTESIAN_POINT('',(-0.013,-0.00242442963644862,-0.002));
#1190=CARTESIAN_POINT('',(-0.012,-0.00242442963644862,-0.002));
#1191=CARTESIAN_POINT('',(-0.003,-0.00242442963644862,-0.002));
#1192=CARTESIAN_POINT('',(-0.003,-0.00242442963644862,-0.002));
#1193=CARTESIAN_POINT('',(-0.002,-0.00242442963644862,-0.002));
#1194=CARTESIAN_POINT('',(0.047,-0.00242442963644862,-0.002));
#1195=CARTESIAN_POINT('',(0.047,-0.00242442963644862,-0.002));
#1196=CARTESIAN_POINT('',(0.048,-0.00242442963644862,-0.002));
#1197=CARTESIAN_POINT('',(0.037,-0.00242442963644862,-0.002));
#1198=CARTESIAN_POINT('',(0.037,-0.00242442963644862,-0.002));
#1199=CARTESIAN_POINT('',(0.038,-0.00242442963644862,-0.002));
#1200=CARTESIAN_POINT('',(0.027,-0.00242442963644862,-0.002));
#1201=CARTESIAN_POINT('',(0.027,-0.00242442963644862,-0.002));
#1202=CARTESIAN_POINT('',(0.028,-0.00242442963644862,-0.002));
#1203=CARTESIAN_POINT('',(0.017,-0.00242442963644862,-0.002));
#1204=CARTESIAN_POINT('',(0.017,-0.00242442963644862,-0.002));
#1205=CARTESIAN_POINT('',(0.018,-0.00242442963644862,-0.002));
#1206=CARTESIAN_POINT('',(0.05,0.015,-0.002));
#1207=CARTESIAN_POINT('',(0.05,0.015,-0.002));
#1208=CARTESIAN_POINT('',(0.0515,0.015,-0.002));
#1209=CARTESIAN_POINT('',(-0.05,0.015,-0.002));
#1210=CARTESIAN_POINT('',(-0.05,0.015,-0.002));
#1211=CARTESIAN_POINT('',(-0.0485,0.015,-0.002));
#1212=CARTESIAN_POINT('',(0.05,-0.055,-0.002));
#1213=CARTESIAN_POINT('',(0.05,-0.055,-0.002));
#1214=CARTESIAN_POINT('',(0.0515,-0.055,-0.002));
#1215=CARTESIAN_POINT('',(-0.05,-0.055,-0.002));
#1216=CARTESIAN_POINT('',(-0.05,-0.055,-0.002));
#1217=CARTESIAN_POINT('',(-0.0485,-0.055,-0.002));
#1218=CARTESIAN_POINT('',(-0.055,-0.02,-0.002));
#1219=CARTESIAN_POINT('',(-0.055,-0.02,-0.002));
#1220=CARTESIAN_POINT('',(-0.00992207229137421,-0.0129244296364486,-0.002));
#1221=CARTESIAN_POINT('',(-0.00992207229137421,-0.0129244296364486,-0.002));
#1222=CARTESIAN_POINT('',(-6.93889390390723E-18,-0.02,-0.002));
#1223=CARTESIAN_POINT('',(-6.93889390390723E-18,-0.02,0.005));
#1224=CARTESIAN_POINT('',(-0.0275,-0.0444472040613969,0.005));
#1225=CARTESIAN_POINT('',(-0.0450227744249483,-0.0444472040613969,0.005));
#1226=CARTESIAN_POINT('',(-0.00997722557505166,-0.0444472040613969,0.005));
#1227=CARTESIAN_POINT('',(-0.00997722557505166,-0.0324244296364486,0.005));
#1228=CARTESIAN_POINT('',(-0.00997722557505166,-0.0204016552115003,0.005));
#1229=CARTESIAN_POINT('',(-0.0275,-0.0204016552115003,0.005));
#1230=CARTESIAN_POINT('',(-0.0450227744249483,-0.0204016552115003,0.005));
#1231=CARTESIAN_POINT('',(-0.0450227744249483,-0.0324244296364486,0.005));
#1232=CARTESIAN_POINT('',(0.007,6.58411821884947E-5,0.01625));
#1233=CARTESIAN_POINT('',(0.01,6.58411821884951E-5,0.01625));
#1234=CARTESIAN_POINT('',(0.01,6.58411821884951E-5,0.01625));
#1235=CARTESIAN_POINT('',(0.01,6.58411821884951E-5,0.0055));
#1236=CARTESIAN_POINT('',(0.007,6.58411821884947E-5,0.0055));
#1237=CARTESIAN_POINT('',(0.004,6.58411821884943E-5,0.0055));
#1238=CARTESIAN_POINT('',(0.004,6.58411821884943E-5,0.01625));
#1239=CARTESIAN_POINT('',(0.004,6.58411821884943E-5,0.01625));
#1240=CARTESIAN_POINT('',(0.007,6.58411821884947E-5,0.01625));
#1241=CARTESIAN_POINT('',(0.004,-0.00242442963644862,0.01625));
#1242=CARTESIAN_POINT('',(0.004,-0.00242442963644862,0.01425));
#1243=CARTESIAN_POINT('',(0.004,-0.00242442963644862,0.01525));
#1244=CARTESIAN_POINT('',(0.004,-0.00242442963644862,0.0055));
#1245=CARTESIAN_POINT('',(0.004,-0.00491470045508574,0.0055));
#1246=CARTESIAN_POINT('',(0.004,-0.00491470045508574,0.01625));
#1247=CARTESIAN_POINT('',(0.004,-0.00491470045508574,0.01625));
#1248=CARTESIAN_POINT('',(0.004,-0.00242442963644862,0.01625));
#1249=CARTESIAN_POINT('',(0.007,-0.00491470045508574,0.01625));
#1250=CARTESIAN_POINT('',(0.01,-0.00491470045508574,0.0055));
#1251=CARTESIAN_POINT('',(0.01,-0.00491470045508574,0.0055));
#1252=CARTESIAN_POINT('',(0.01,-0.00491470045508574,0.01625));
#1253=CARTESIAN_POINT('',(0.01,-0.00491470045508574,0.01625));
#1254=CARTESIAN_POINT('',(0.007,-0.00491470045508574,0.01625));
#1255=CARTESIAN_POINT('',(0.01,-0.00242442963644862,0.01625));
#1256=CARTESIAN_POINT('',(0.01,-0.00242442963644862,0.01425));
#1257=CARTESIAN_POINT('',(0.01,-0.00242442963644862,0.01325));
#1258=CARTESIAN_POINT('',(0.01,6.5841182188494E-5,0.0055));
#1259=CARTESIAN_POINT('',(0.01,-0.00242442963644862,0.01625));
#1260=CARTESIAN_POINT('',(-6.93889390390723E-18,-0.02,0.01625));
#1261=CARTESIAN_POINT('',(0.029,-0.00242442963644862,0.01425));
#1262=CARTESIAN_POINT('',(-6.93889390390723E-18,-0.0499244296364486,0.0055));
#1263=CARTESIAN_POINT('',(-0.0505,-0.0499244296364486,0.0055));
#1264=CARTESIAN_POINT('',(-0.0045,-0.0499244296364486,0.0055));
#1265=CARTESIAN_POINT('',(-0.0045,-0.02,0.0055));
#1266=CARTESIAN_POINT('',(-0.0045,-0.0149244296364486,0.0055));
#1267=CARTESIAN_POINT('',(-0.0505,-0.0264244296364487,0.0055));
#1268=CARTESIAN_POINT('',(-0.0505,-0.0149244296364486,0.0055));
#1269=CARTESIAN_POINT('',(-0.0275,-0.0149244296364486,0.0055));
#1270=CARTESIAN_POINT('',(-6.93889390390723E-18,-0.0104147004550857,0.0055));
#1271=CARTESIAN_POINT('',(-0.0015,-0.0104147004550857,0.0055));
#1272=CARTESIAN_POINT('',(0.0155,-0.0104147004550857,0.0055));
#1273=CARTESIAN_POINT('',(0.0155,-0.02,0.0055));
#1274=CARTESIAN_POINT('',(0.0155,0.0055658411821885,0.0055));
#1275=CARTESIAN_POINT('',(-0.0015,-0.00242442963644862,0.0055));
#1276=CARTESIAN_POINT('',(-0.0015,0.00556584118218849,0.0055));
#1277=CARTESIAN_POINT('',(0.007,0.0055658411821885,0.0055));
#1278=MECHANICAL_DESIGN_GEOMETRIC_PRESENTATION_REPRESENTATION('',(#773),
#1279);
#1279=(
GEOMETRIC_REPRESENTATION_CONTEXT(3)
GLOBAL_UNCERTAINTY_ASSIGNED_CONTEXT((#1280))
GLOBAL_UNIT_ASSIGNED_CONTEXT((#1283,#1282,#1281))
REPRESENTATION_CONTEXT('Part 1','TOP_LEVEL_ASSEMBLY_PART')
);
#1280=UNCERTAINTY_MEASURE_WITH_UNIT(LENGTH_MEASURE(1.E-8),#1283,
'DISTANCE_ACCURACY_VALUE','Maximum Tolerance applied to model');
#1281=(
NAMED_UNIT(*)
SI_UNIT($,.STERADIAN.)
SOLID_ANGLE_UNIT()
);
#1282=(
NAMED_UNIT(*)
PLANE_ANGLE_UNIT()
SI_UNIT($,.RADIAN.)
);
#1283=(
LENGTH_UNIT()
NAMED_UNIT(*)
SI_UNIT($,.METRE.)
);
#1284=PRODUCT_DEFINITION_SHAPE('','',#1285);
#1285=PRODUCT_DEFINITION('','',#1287,#1286);
#1286=PRODUCT_DEFINITION_CONTEXT('',#1293,'design');
#1287=PRODUCT_DEFINITION_FORMATION_WITH_SPECIFIED_SOURCE('','',#1289,
 .NOT_KNOWN.);
#1288=PRODUCT_RELATED_PRODUCT_CATEGORY('','',(#1289));
#1289=PRODUCT('Part 1','Part 1','Part 1',(#1291));
#1290=PRODUCT_CATEGORY('','');
#1291=PRODUCT_CONTEXT('',#1293,'mechanical');
#1292=APPLICATION_PROTOCOL_DEFINITION('international standard',
'ap242_managed_model_based_3d_engineering',2020,#1293);
#1293=APPLICATION_CONTEXT('managed model based 3d engineering');
ENDSEC;
END-ISO-10303-21;
