ISO-10303-21;
HEADER;
/* Generated by software containing ST-Developer
 * from STEP Tools, Inc. (www.steptools.com) 
 */
/* OPTION: using custom renumber hook */

FILE_DESCRIPTION(
/* description */ ('STEP AP242 Edition 2',
'CAx-IF Rec.Pracs.---Representation and Presentation of Product Manufa
cturing Information (PMI)---4.0---2014-10-13',
'CAx-IF Rec.Pracs.---3D Tessellated Geometry---0.4---2014-09-14','2;1',
'CAx-IF Rec.Pracs.---User Defined Attributes---1.5---2016-08-15'),
/* implementation_level */ '2;1');

FILE_NAME(
/* name */ 'Assembly 1 - Part 1',
/* time_stamp */ '2026-05-21T02:21:53Z',
/* author */ (''),
/* organization */ (''),
/* preprocessor_version */ 'ST-DEVELOPER v20',
/* originating_system */ 'ONSHAPE BY PTC INC, 1.215',
/* authorisation */ '  ');

FILE_SCHEMA (('AP242_MANAGED_MODEL_BASED_3D_ENGINEERING_MIM_LF { 1 0 10303 442 3 1 4 }'));
ENDSEC;

DATA;
#10=SHAPE_REPRESENTATION_RELATIONSHIP('','',#393,#11);
#11=ADVANCED_BREP_SHAPE_REPRESENTATION('',(#391),#647);
#12=CIRCLE('',#397,0.001);
#13=CIRCLE('',#398,0.001);
#14=CIRCLE('',#399,0.001);
#15=CIRCLE('',#400,0.001);
#16=CIRCLE('',#405,0.001);
#17=CIRCLE('',#406,0.003);
#18=CIRCLE('',#408,0.003);
#19=CIRCLE('',#410,0.003);
#20=CIRCLE('',#411,0.003);
#21=CIRCLE('',#413,0.001);
#22=CIRCLE('',#414,0.001);
#23=CIRCLE('',#415,0.001);
#24=CIRCLE('',#416,0.001);
#25=CIRCLE('',#418,0.001);
#26=CIRCLE('',#419,0.001);
#27=CIRCLE('',#421,0.001);
#28=CYLINDRICAL_SURFACE('',#396,0.001);
#29=CYLINDRICAL_SURFACE('',#407,0.003);
#30=CYLINDRICAL_SURFACE('',#409,0.003);
#31=CYLINDRICAL_SURFACE('',#412,0.001);
#32=CYLINDRICAL_SURFACE('',#417,0.001);
#33=CYLINDRICAL_SURFACE('',#420,0.001);
#34=ORIENTED_EDGE('',*,*,#138,.F.);
#35=ORIENTED_EDGE('',*,*,#139,.F.);
#36=ORIENTED_EDGE('',*,*,#140,.T.);
#37=ORIENTED_EDGE('',*,*,#141,.T.);
#38=ORIENTED_EDGE('',*,*,#142,.F.);
#39=ORIENTED_EDGE('',*,*,#143,.F.);
#40=ORIENTED_EDGE('',*,*,#144,.T.);
#41=ORIENTED_EDGE('',*,*,#145,.F.);
#42=ORIENTED_EDGE('',*,*,#146,.T.);
#43=ORIENTED_EDGE('',*,*,#147,.T.);
#44=ORIENTED_EDGE('',*,*,#148,.T.);
#45=ORIENTED_EDGE('',*,*,#149,.T.);
#46=ORIENTED_EDGE('',*,*,#150,.F.);
#47=ORIENTED_EDGE('',*,*,#151,.F.);
#48=ORIENTED_EDGE('',*,*,#152,.T.);
#49=ORIENTED_EDGE('',*,*,#153,.T.);
#50=ORIENTED_EDGE('',*,*,#154,.F.);
#51=ORIENTED_EDGE('',*,*,#155,.T.);
#52=ORIENTED_EDGE('',*,*,#151,.T.);
#53=ORIENTED_EDGE('',*,*,#156,.F.);
#54=ORIENTED_EDGE('',*,*,#157,.T.);
#55=ORIENTED_EDGE('',*,*,#158,.T.);
#56=ORIENTED_EDGE('',*,*,#159,.T.);
#57=ORIENTED_EDGE('',*,*,#160,.F.);
#58=ORIENTED_EDGE('',*,*,#161,.T.);
#59=ORIENTED_EDGE('',*,*,#162,.T.);
#60=ORIENTED_EDGE('',*,*,#163,.F.);
#61=ORIENTED_EDGE('',*,*,#164,.F.);
#62=ORIENTED_EDGE('',*,*,#165,.F.);
#63=ORIENTED_EDGE('',*,*,#166,.T.);
#64=ORIENTED_EDGE('',*,*,#167,.T.);
#65=ORIENTED_EDGE('',*,*,#149,.F.);
#66=ORIENTED_EDGE('',*,*,#168,.F.);
#67=ORIENTED_EDGE('',*,*,#139,.T.);
#68=ORIENTED_EDGE('',*,*,#169,.T.);
#69=ORIENTED_EDGE('',*,*,#146,.F.);
#70=ORIENTED_EDGE('',*,*,#170,.T.);
#71=ORIENTED_EDGE('',*,*,#157,.F.);
#72=ORIENTED_EDGE('',*,*,#171,.T.);
#73=ORIENTED_EDGE('',*,*,#172,.T.);
#74=ORIENTED_EDGE('',*,*,#140,.F.);
#75=ORIENTED_EDGE('',*,*,#171,.F.);
#76=ORIENTED_EDGE('',*,*,#164,.T.);
#77=ORIENTED_EDGE('',*,*,#173,.T.);
#78=ORIENTED_EDGE('',*,*,#162,.F.);
#79=ORIENTED_EDGE('',*,*,#174,.F.);
#80=ORIENTED_EDGE('',*,*,#142,.T.);
#81=ORIENTED_EDGE('',*,*,#175,.F.);
#82=ORIENTED_EDGE('',*,*,#176,.T.);
#83=ORIENTED_EDGE('',*,*,#154,.T.);
#84=ORIENTED_EDGE('',*,*,#177,.F.);
#85=ORIENTED_EDGE('',*,*,#166,.F.);
#86=ORIENTED_EDGE('',*,*,#178,.T.);
#87=ORIENTED_EDGE('',*,*,#179,.F.);
#88=ORIENTED_EDGE('',*,*,#180,.T.);
#89=ORIENTED_EDGE('',*,*,#181,.T.);
#90=ORIENTED_EDGE('',*,*,#182,.F.);
#91=ORIENTED_EDGE('',*,*,#168,.T.);
#92=ORIENTED_EDGE('',*,*,#183,.F.);
#93=ORIENTED_EDGE('',*,*,#184,.F.);
#94=ORIENTED_EDGE('',*,*,#143,.T.);
#95=ORIENTED_EDGE('',*,*,#174,.T.);
#96=ORIENTED_EDGE('',*,*,#161,.F.);
#97=ORIENTED_EDGE('',*,*,#185,.F.);
#98=ORIENTED_EDGE('',*,*,#180,.F.);
#99=ORIENTED_EDGE('',*,*,#181,.F.);
#100=ORIENTED_EDGE('',*,*,#150,.T.);
#101=ORIENTED_EDGE('',*,*,#167,.F.);
#102=ORIENTED_EDGE('',*,*,#177,.T.);
#103=ORIENTED_EDGE('',*,*,#156,.T.);
#104=ORIENTED_EDGE('',*,*,#172,.F.);
#105=ORIENTED_EDGE('',*,*,#163,.T.);
#106=ORIENTED_EDGE('',*,*,#173,.F.);
#107=ORIENTED_EDGE('',*,*,#141,.F.);
#108=ORIENTED_EDGE('',*,*,#182,.T.);
#109=ORIENTED_EDGE('',*,*,#183,.T.);
#110=ORIENTED_EDGE('',*,*,#145,.T.);
#111=ORIENTED_EDGE('',*,*,#186,.T.);
#112=ORIENTED_EDGE('',*,*,#178,.F.);
#113=ORIENTED_EDGE('',*,*,#165,.T.);
#114=ORIENTED_EDGE('',*,*,#148,.F.);
#115=ORIENTED_EDGE('',*,*,#187,.F.);
#116=ORIENTED_EDGE('',*,*,#184,.T.);
#117=ORIENTED_EDGE('',*,*,#179,.T.);
#118=ORIENTED_EDGE('',*,*,#186,.F.);
#119=ORIENTED_EDGE('',*,*,#144,.F.);
#120=ORIENTED_EDGE('',*,*,#138,.T.);
#121=ORIENTED_EDGE('',*,*,#187,.T.);
#122=ORIENTED_EDGE('',*,*,#147,.F.);
#123=ORIENTED_EDGE('',*,*,#169,.F.);
#124=ORIENTED_EDGE('',*,*,#155,.F.);
#125=ORIENTED_EDGE('',*,*,#176,.F.);
#126=ORIENTED_EDGE('',*,*,#188,.T.);
#127=ORIENTED_EDGE('',*,*,#159,.F.);
#128=ORIENTED_EDGE('',*,*,#189,.F.);
#129=ORIENTED_EDGE('',*,*,#152,.F.);
#130=ORIENTED_EDGE('',*,*,#189,.T.);
#131=ORIENTED_EDGE('',*,*,#158,.F.);
#132=ORIENTED_EDGE('',*,*,#170,.F.);
#133=ORIENTED_EDGE('',*,*,#153,.F.);
#134=ORIENTED_EDGE('',*,*,#175,.T.);
#135=ORIENTED_EDGE('',*,*,#185,.T.);
#136=ORIENTED_EDGE('',*,*,#160,.T.);
#137=ORIENTED_EDGE('',*,*,#188,.F.);
#138=EDGE_CURVE('',#190,#191,#226,.T.);
#139=EDGE_CURVE('',#192,#190,#227,.T.);
#140=EDGE_CURVE('',#192,#193,#228,.T.);
#141=EDGE_CURVE('',#193,#194,#229,.T.);
#142=EDGE_CURVE('',#195,#194,#230,.T.);
#143=EDGE_CURVE('',#196,#195,#231,.T.);
#144=EDGE_CURVE('',#196,#197,#232,.T.);
#145=EDGE_CURVE('',#191,#197,#233,.T.);
#146=EDGE_CURVE('',#198,#199,#12,.T.);
#147=EDGE_CURVE('',#199,#200,#234,.T.);
#148=EDGE_CURVE('',#200,#201,#13,.T.);
#149=EDGE_CURVE('',#201,#202,#235,.T.);
#150=EDGE_CURVE('',#203,#202,#14,.T.);
#151=EDGE_CURVE('',#204,#203,#236,.T.);
#152=EDGE_CURVE('',#204,#205,#15,.T.);
#153=EDGE_CURVE('',#205,#198,#237,.F.);
#154=EDGE_CURVE('',#206,#207,#238,.T.);
#155=EDGE_CURVE('',#206,#204,#239,.T.);
#156=EDGE_CURVE('',#207,#203,#240,.T.);
#157=EDGE_CURVE('',#208,#209,#241,.T.);
#158=EDGE_CURVE('',#209,#210,#242,.T.);
#159=EDGE_CURVE('',#210,#211,#243,.T.);
#160=EDGE_CURVE('',#212,#211,#244,.T.);
#161=EDGE_CURVE('',#212,#213,#245,.T.);
#162=EDGE_CURVE('',#213,#214,#246,.T.);
#163=EDGE_CURVE('',#215,#214,#247,.T.);
#164=EDGE_CURVE('',#208,#215,#248,.T.);
#165=EDGE_CURVE('',#216,#201,#249,.T.);
#166=EDGE_CURVE('',#216,#217,#250,.T.);
#167=EDGE_CURVE('',#217,#202,#251,.T.);
#168=EDGE_CURVE('',#218,#218,#16,.T.);
#169=EDGE_CURVE('',#190,#199,#252,.T.);
#170=EDGE_CURVE('',#198,#209,#253,.T.);
#171=EDGE_CURVE('',#208,#192,#17,.T.);
#172=EDGE_CURVE('',#215,#193,#18,.T.);
#173=EDGE_CURVE('',#194,#214,#19,.T.);
#174=EDGE_CURVE('',#195,#213,#20,.T.);
#175=EDGE_CURVE('',#219,#220,#254,.F.);
#176=EDGE_CURVE('',#219,#206,#21,.T.);
#177=EDGE_CURVE('',#217,#207,#22,.T.);
#178=EDGE_CURVE('',#216,#221,#23,.T.);
#179=EDGE_CURVE('',#222,#221,#255,.T.);
#180=EDGE_CURVE('',#222,#220,#24,.T.);
#181=EDGE_CURVE('',#223,#223,#25,.T.);
#182=EDGE_CURVE('',#224,#224,#26,.T.);
#183=EDGE_CURVE('',#225,#225,#27,.T.);
#184=EDGE_CURVE('',#196,#222,#256,.T.);
#185=EDGE_CURVE('',#220,#212,#257,.T.);
#186=EDGE_CURVE('',#197,#221,#258,.T.);
#187=EDGE_CURVE('',#191,#200,#259,.T.);
#188=EDGE_CURVE('',#219,#211,#260,.T.);
#189=EDGE_CURVE('',#205,#210,#261,.T.);
#190=VERTEX_POINT('',#541);
#191=VERTEX_POINT('',#542);
#192=VERTEX_POINT('',#544);
#193=VERTEX_POINT('',#546);
#194=VERTEX_POINT('',#548);
#195=VERTEX_POINT('',#550);
#196=VERTEX_POINT('',#552);
#197=VERTEX_POINT('',#554);
#198=VERTEX_POINT('',#558);
#199=VERTEX_POINT('',#559);
#200=VERTEX_POINT('',#561);
#201=VERTEX_POINT('',#563);
#202=VERTEX_POINT('',#565);
#203=VERTEX_POINT('',#567);
#204=VERTEX_POINT('',#569);
#205=VERTEX_POINT('',#571);
#206=VERTEX_POINT('',#575);
#207=VERTEX_POINT('',#576);
#208=VERTEX_POINT('',#581);
#209=VERTEX_POINT('',#582);
#210=VERTEX_POINT('',#584);
#211=VERTEX_POINT('',#586);
#212=VERTEX_POINT('',#588);
#213=VERTEX_POINT('',#590);
#214=VERTEX_POINT('',#592);
#215=VERTEX_POINT('',#594);
#216=VERTEX_POINT('',#598);
#217=VERTEX_POINT('',#600);
#218=VERTEX_POINT('',#604);
#219=VERTEX_POINT('',#615);
#220=VERTEX_POINT('',#616);
#221=VERTEX_POINT('',#620);
#222=VERTEX_POINT('',#622);
#223=VERTEX_POINT('',#626);
#224=VERTEX_POINT('',#628);
#225=VERTEX_POINT('',#631);
#226=LINE('',#540,#262);
#227=LINE('',#543,#263);
#228=LINE('',#545,#264);
#229=LINE('',#547,#265);
#230=LINE('',#549,#266);
#231=LINE('',#551,#267);
#232=LINE('',#553,#268);
#233=LINE('',#555,#269);
#234=LINE('',#560,#270);
#235=LINE('',#564,#271);
#236=LINE('',#568,#272);
#237=LINE('',#572,#273);
#238=LINE('',#574,#274);
#239=LINE('',#577,#275);
#240=LINE('',#578,#276);
#241=LINE('',#580,#277);
#242=LINE('',#583,#278);
#243=LINE('',#585,#279);
#244=LINE('',#587,#280);
#245=LINE('',#589,#281);
#246=LINE('',#591,#282);
#247=LINE('',#593,#283);
#248=LINE('',#595,#284);
#249=LINE('',#597,#285);
#250=LINE('',#599,#286);
#251=LINE('',#601,#287);
#252=LINE('',#605,#288);
#253=LINE('',#606,#289);
#254=LINE('',#614,#290);
#255=LINE('',#621,#291);
#256=LINE('',#633,#292);
#257=LINE('',#634,#293);
#258=LINE('',#637,#294);
#259=LINE('',#638,#295);
#260=LINE('',#642,#296);
#261=LINE('',#643,#297);
#262=VECTOR('',#434,1.);
#263=VECTOR('',#435,1.);
#264=VECTOR('',#436,1.);
#265=VECTOR('',#437,1.);
#266=VECTOR('',#438,1.);
#267=VECTOR('',#439,1.);
#268=VECTOR('',#440,1.);
#269=VECTOR('',#441,1.);
#270=VECTOR('',#446,1.);
#271=VECTOR('',#449,1.);
#272=VECTOR('',#452,1.);
#273=VECTOR('',#455,1.);
#274=VECTOR('',#458,1.);
#275=VECTOR('',#459,1.);
#276=VECTOR('',#460,1.);
#277=VECTOR('',#463,1.);
#278=VECTOR('',#464,1.);
#279=VECTOR('',#465,1.);
#280=VECTOR('',#466,1.);
#281=VECTOR('',#467,1.);
#282=VECTOR('',#468,1.);
#283=VECTOR('',#469,1.);
#284=VECTOR('',#470,1.);
#285=VECTOR('',#473,1.);
#286=VECTOR('',#474,1.);
#287=VECTOR('',#475,1.);
#288=VECTOR('',#480,1.);
#289=VECTOR('',#481,1.);
#290=VECTOR('',#496,1.);
#291=VECTOR('',#503,1.);
#292=VECTOR('',#518,1.);
#293=VECTOR('',#519,1.);
#294=VECTOR('',#524,1.);
#295=VECTOR('',#525,1.);
#296=VECTOR('',#532,1.);
#297=VECTOR('',#533,1.);
#298=EDGE_LOOP('',(#34,#35,#36,#37,#38,#39,#40,#41));
#299=EDGE_LOOP('',(#42,#43,#44,#45,#46,#47,#48,#49));
#300=EDGE_LOOP('',(#50,#51,#52,#53));
#301=EDGE_LOOP('',(#54,#55,#56,#57,#58,#59,#60,#61));
#302=EDGE_LOOP('',(#62,#63,#64,#65));
#303=EDGE_LOOP('',(#66));
#304=EDGE_LOOP('',(#67,#68,#69,#70,#71,#72));
#305=EDGE_LOOP('',(#73,#74,#75,#76));
#306=EDGE_LOOP('',(#77,#78,#79,#80));
#307=EDGE_LOOP('',(#81,#82,#83,#84,#85,#86,#87,#88));
#308=EDGE_LOOP('',(#89));
#309=EDGE_LOOP('',(#90));
#310=EDGE_LOOP('',(#91));
#311=EDGE_LOOP('',(#92));
#312=EDGE_LOOP('',(#93,#94,#95,#96,#97,#98));
#313=EDGE_LOOP('',(#99));
#314=EDGE_LOOP('',(#100,#101,#102,#103));
#315=EDGE_LOOP('',(#104,#105,#106,#107));
#316=EDGE_LOOP('',(#108));
#317=EDGE_LOOP('',(#109));
#318=EDGE_LOOP('',(#110,#111,#112,#113,#114,#115));
#319=EDGE_LOOP('',(#116,#117,#118,#119));
#320=EDGE_LOOP('',(#120,#121,#122,#123));
#321=EDGE_LOOP('',(#124,#125,#126,#127,#128,#129));
#322=EDGE_LOOP('',(#130,#131,#132,#133));
#323=EDGE_LOOP('',(#134,#135,#136,#137));
#324=FACE_BOUND('',#298,.T.);
#325=FACE_BOUND('',#299,.T.);
#326=FACE_BOUND('',#300,.T.);
#327=FACE_BOUND('',#301,.T.);
#328=FACE_BOUND('',#302,.T.);
#329=FACE_BOUND('',#303,.T.);
#330=FACE_BOUND('',#304,.T.);
#331=FACE_BOUND('',#305,.T.);
#332=FACE_BOUND('',#306,.T.);
#333=FACE_BOUND('',#307,.T.);
#334=FACE_BOUND('',#308,.T.);
#335=FACE_BOUND('',#309,.T.);
#336=FACE_BOUND('',#310,.T.);
#337=FACE_BOUND('',#311,.T.);
#338=FACE_BOUND('',#312,.T.);
#339=FACE_BOUND('',#313,.T.);
#340=FACE_BOUND('',#314,.T.);
#341=FACE_BOUND('',#315,.T.);
#342=FACE_BOUND('',#316,.T.);
#343=FACE_BOUND('',#317,.T.);
#344=FACE_BOUND('',#318,.T.);
#345=FACE_BOUND('',#319,.T.);
#346=FACE_BOUND('',#320,.T.);
#347=FACE_BOUND('',#321,.T.);
#348=FACE_BOUND('',#322,.T.);
#349=FACE_BOUND('',#323,.T.);
#350=PLANE('',#395);
#351=PLANE('',#401);
#352=PLANE('',#402);
#353=PLANE('',#403);
#354=PLANE('',#404);
#355=PLANE('',#422);
#356=PLANE('',#423);
#357=PLANE('',#424);
#358=PLANE('',#425);
#359=PLANE('',#426);
#360=PLANE('',#427);
#361=PLANE('',#428);
#362=PLANE('',#429);
#363=ADVANCED_FACE('',(#324),#350,.F.);
#364=ADVANCED_FACE('',(#325),#28,.F.);
#365=ADVANCED_FACE('',(#326),#351,.T.);
#366=ADVANCED_FACE('',(#327),#352,.T.);
#367=ADVANCED_FACE('',(#328),#353,.F.);
#368=ADVANCED_FACE('',(#329,#330),#354,.T.);
#369=ADVANCED_FACE('',(#331),#29,.T.);
#370=ADVANCED_FACE('',(#332),#30,.T.);
#371=ADVANCED_FACE('',(#333),#31,.F.);
#372=ADVANCED_FACE('',(#334,#335),#32,.F.);
#373=ADVANCED_FACE('',(#336,#337),#33,.F.);
#374=ADVANCED_FACE('',(#338,#339),#355,.T.);
#375=ADVANCED_FACE('',(#340,#341,#342,#343),#356,.F.);
#376=ADVANCED_FACE('',(#344),#357,.T.);
#377=ADVANCED_FACE('',(#345),#358,.F.);
#378=ADVANCED_FACE('',(#346),#359,.T.);
#379=ADVANCED_FACE('',(#347),#360,.T.);
#380=ADVANCED_FACE('',(#348),#361,.T.);
#381=ADVANCED_FACE('',(#349),#362,.F.);
#382=CLOSED_SHELL('',(#363,#364,#365,#366,#367,#368,#369,#370,#371,#372,
#373,#374,#375,#376,#377,#378,#379,#380,#381));
#383=STYLED_ITEM('',(#384),#391);
#384=PRESENTATION_STYLE_ASSIGNMENT((#385));
#385=SURFACE_STYLE_USAGE(.BOTH.,#386);
#386=SURFACE_SIDE_STYLE('',(#387));
#387=SURFACE_STYLE_FILL_AREA(#388);
#388=FILL_AREA_STYLE('',(#389));
#389=FILL_AREA_STYLE_COLOUR('',#390);
#390=COLOUR_RGB('',0.615686274509804,0.811764705882353,0.929411764705882);
#391=MANIFOLD_SOLID_BREP('Part 1',#382);
#392=SHAPE_DEFINITION_REPRESENTATION(#652,#393);
#393=SHAPE_REPRESENTATION('Part 1',(#394),#647);
#394=AXIS2_PLACEMENT_3D('',#538,#430,#431);
#395=AXIS2_PLACEMENT_3D('',#539,#432,#433);
#396=AXIS2_PLACEMENT_3D('',#556,#442,#443);
#397=AXIS2_PLACEMENT_3D('',#557,#444,#445);
#398=AXIS2_PLACEMENT_3D('',#562,#447,#448);
#399=AXIS2_PLACEMENT_3D('',#566,#450,#451);
#400=AXIS2_PLACEMENT_3D('',#570,#453,#454);
#401=AXIS2_PLACEMENT_3D('',#573,#456,#457);
#402=AXIS2_PLACEMENT_3D('',#579,#461,#462);
#403=AXIS2_PLACEMENT_3D('',#596,#471,#472);
#404=AXIS2_PLACEMENT_3D('',#602,#476,#477);
#405=AXIS2_PLACEMENT_3D('',#603,#478,#479);
#406=AXIS2_PLACEMENT_3D('',#607,#482,#483);
#407=AXIS2_PLACEMENT_3D('',#608,#484,#485);
#408=AXIS2_PLACEMENT_3D('',#609,#486,#487);
#409=AXIS2_PLACEMENT_3D('',#610,#488,#489);
#410=AXIS2_PLACEMENT_3D('',#611,#490,#491);
#411=AXIS2_PLACEMENT_3D('',#612,#492,#493);
#412=AXIS2_PLACEMENT_3D('',#613,#494,#495);
#413=AXIS2_PLACEMENT_3D('',#617,#497,#498);
#414=AXIS2_PLACEMENT_3D('',#618,#499,#500);
#415=AXIS2_PLACEMENT_3D('',#619,#501,#502);
#416=AXIS2_PLACEMENT_3D('',#623,#504,#505);
#417=AXIS2_PLACEMENT_3D('',#624,#506,#507);
#418=AXIS2_PLACEMENT_3D('',#625,#508,#509);
#419=AXIS2_PLACEMENT_3D('',#627,#510,#511);
#420=AXIS2_PLACEMENT_3D('',#629,#512,#513);
#421=AXIS2_PLACEMENT_3D('',#630,#514,#515);
#422=AXIS2_PLACEMENT_3D('',#632,#516,#517);
#423=AXIS2_PLACEMENT_3D('',#635,#520,#521);
#424=AXIS2_PLACEMENT_3D('',#636,#522,#523);
#425=AXIS2_PLACEMENT_3D('',#639,#526,#527);
#426=AXIS2_PLACEMENT_3D('',#640,#528,#529);
#427=AXIS2_PLACEMENT_3D('',#641,#530,#531);
#428=AXIS2_PLACEMENT_3D('',#644,#534,#535);
#429=AXIS2_PLACEMENT_3D('',#645,#536,#537);
#430=DIRECTION('',(0.,0.,1.));
#431=DIRECTION('',(1.,0.,0.));
#432=DIRECTION('',(1.,8.67361737988404E-17,0.));
#433=DIRECTION('',(-8.67361737988404E-17,1.,0.));
#434=DIRECTION('',(0.,0.,-1.));
#435=DIRECTION('',(8.67361737988404E-17,-1.,0.));
#436=DIRECTION('',(0.,0.,-1.));
#437=DIRECTION('',(8.67361737988404E-17,-1.,0.));
#438=DIRECTION('',(0.,0.,-1.));
#439=DIRECTION('',(8.67361737988404E-17,-1.,0.));
#440=DIRECTION('',(0.,0.,-1.));
#441=DIRECTION('',(8.67361737988404E-17,-1.,0.));
#442=DIRECTION('',(0.,0.,-1.));
#443=DIRECTION('',(-1.,0.,0.));
#444=DIRECTION('',(0.,0.,1.));
#445=DIRECTION('',(1.,0.,0.));
#446=DIRECTION('',(0.,0.,-1.));
#447=DIRECTION('',(0.,0.,1.));
#448=DIRECTION('',(1.,0.,0.));
#449=DIRECTION('',(0.,0.,-1.));
#450=DIRECTION('',(0.,0.,1.));
#451=DIRECTION('',(1.,0.,0.));
#452=DIRECTION('',(0.,0.,-1.));
#453=DIRECTION('',(0.,0.,1.));
#454=DIRECTION('',(1.,0.,0.));
#455=DIRECTION('',(0.,0.,-1.));
#456=DIRECTION('',(-1.,0.,0.));
#457=DIRECTION('',(0.,0.,1.));
#458=DIRECTION('',(0.,0.,-1.));
#459=DIRECTION('',(0.,1.,0.));
#460=DIRECTION('',(0.,1.,0.));
#461=DIRECTION('',(1.,8.67361737988404E-17,0.));
#462=DIRECTION('',(-8.67361737988404E-17,1.,0.));
#463=DIRECTION('',(8.67361737988404E-17,-1.,0.));
#464=DIRECTION('',(0.,0.,-1.));
#465=DIRECTION('',(8.67361737988404E-17,-1.,0.));
#466=DIRECTION('',(0.,0.,-1.));
#467=DIRECTION('',(8.67361737988404E-17,-1.,0.));
#468=DIRECTION('',(0.,0.,-1.));
#469=DIRECTION('',(8.67361737988404E-17,-1.,0.));
#470=DIRECTION('',(0.,0.,-1.));
#471=DIRECTION('',(-0.99999966229943,-0.000821827856373021,0.));
#472=DIRECTION('',(0.000821827856373021,-0.99999966229943,0.));
#473=DIRECTION('',(-0.000821827856373021,0.99999966229943,0.));
#474=DIRECTION('',(0.,0.,-1.));
#475=DIRECTION('',(-0.000821827856373021,0.99999966229943,0.));
#476=DIRECTION('',(0.,0.,1.));
#477=DIRECTION('',(1.,0.,0.));
#478=DIRECTION('',(0.,0.,1.));
#479=DIRECTION('',(1.,0.,0.));
#480=DIRECTION('',(1.,8.67361737988404E-17,0.));
#481=DIRECTION('',(1.,8.67361737988404E-17,0.));
#482=DIRECTION('',(0.,0.,1.));
#483=DIRECTION('',(1.,0.,0.));
#484=DIRECTION('',(0.,0.,-1.));
#485=DIRECTION('',(-1.,0.,0.));
#486=DIRECTION('',(0.,0.,1.));
#487=DIRECTION('',(1.,0.,0.));
#488=DIRECTION('',(0.,0.,-1.));
#489=DIRECTION('',(-1.,0.,0.));
#490=DIRECTION('',(0.,0.,1.));
#491=DIRECTION('',(1.,0.,0.));
#492=DIRECTION('',(0.,0.,1.));
#493=DIRECTION('',(1.,0.,0.));
#494=DIRECTION('',(0.,0.,-1.));
#495=DIRECTION('',(-1.,0.,0.));
#496=DIRECTION('',(0.,0.,-1.));
#497=DIRECTION('',(0.,0.,1.));
#498=DIRECTION('',(1.,0.,0.));
#499=DIRECTION('',(0.,0.,1.));
#500=DIRECTION('',(1.,0.,0.));
#501=DIRECTION('',(0.,0.,1.));
#502=DIRECTION('',(1.,0.,0.));
#503=DIRECTION('',(0.,0.,-1.));
#504=DIRECTION('',(0.,0.,1.));
#505=DIRECTION('',(1.,0.,0.));
#506=DIRECTION('',(0.,0.,-1.));
#507=DIRECTION('',(-1.,0.,0.));
#508=DIRECTION('',(0.,0.,1.));
#509=DIRECTION('',(1.,0.,0.));
#510=DIRECTION('',(0.,0.,1.));
#511=DIRECTION('',(1.,0.,0.));
#512=DIRECTION('',(0.,0.,-1.));
#513=DIRECTION('',(-1.,0.,0.));
#514=DIRECTION('',(0.,0.,1.));
#515=DIRECTION('',(1.,0.,0.));
#516=DIRECTION('',(0.,0.,1.));
#517=DIRECTION('',(1.,0.,0.));
#518=DIRECTION('',(1.,8.67361737988404E-17,0.));
#519=DIRECTION('',(1.,8.67361737988404E-17,0.));
#520=DIRECTION('',(0.,0.,1.));
#521=DIRECTION('',(1.,0.,0.));
#522=DIRECTION('',(0.,0.,1.));
#523=DIRECTION('',(1.,0.,0.));
#524=DIRECTION('',(1.,8.67361737988404E-17,0.));
#525=DIRECTION('',(1.,8.67361737988404E-17,0.));
#526=DIRECTION('',(8.67361737988404E-17,-1.,0.));
#527=DIRECTION('',(1.,8.67361737988404E-17,0.));
#528=DIRECTION('',(8.67361737988404E-17,-1.,0.));
#529=DIRECTION('',(1.,8.67361737988404E-17,0.));
#530=DIRECTION('',(0.,0.,1.));
#531=DIRECTION('',(1.,0.,0.));
#532=DIRECTION('',(1.,8.67361737988404E-17,0.));
#533=DIRECTION('',(1.,8.67361737988404E-17,0.));
#534=DIRECTION('',(8.67361737988404E-17,-1.,0.));
#535=DIRECTION('',(1.,8.67361737988404E-17,0.));
#536=DIRECTION('',(8.67361737988404E-17,-1.,0.));
#537=DIRECTION('',(1.,8.67361737988404E-17,0.));
#538=CARTESIAN_POINT('',(0.,0.,0.));
#539=CARTESIAN_POINT('',(-0.003,0.,0.002));
#540=CARTESIAN_POINT('',(-0.003,0.0015,0.002));
#541=CARTESIAN_POINT('',(-0.003,0.0015,0.002));
#542=CARTESIAN_POINT('',(-0.003,0.0015,0.00114880296960473));
#543=CARTESIAN_POINT('',(-0.003,0.,0.002));
#544=CARTESIAN_POINT('',(-0.003,0.005,0.002));
#545=CARTESIAN_POINT('',(-0.003,0.005,0.002));
#546=CARTESIAN_POINT('',(-0.003,0.005,0.));
#547=CARTESIAN_POINT('',(-0.003,0.,0.));
#548=CARTESIAN_POINT('',(-0.003,-0.005,0.));
#549=CARTESIAN_POINT('',(-0.003,-0.005,0.002));
#550=CARTESIAN_POINT('',(-0.003,-0.005,0.002));
#551=CARTESIAN_POINT('',(-0.003,0.,0.002));
#552=CARTESIAN_POINT('',(-0.003,-0.0015,0.002));
#553=CARTESIAN_POINT('',(-0.003,-0.0015,0.002));
#554=CARTESIAN_POINT('',(-0.003,-0.0015,0.00114880296960473));
#555=CARTESIAN_POINT('',(-0.003,0.,0.00114880296960473));
#556=CARTESIAN_POINT('',(3.06161699786839E-20,0.001,0.002));
#557=CARTESIAN_POINT('',(3.06161699786839E-20,0.001,0.002));
#558=CARTESIAN_POINT('',(0.000866025403784439,0.0015,0.002));
#559=CARTESIAN_POINT('',(-0.000866025403784439,0.0015,0.002));
#560=CARTESIAN_POINT('',(-0.000866025403784438,0.0015,0.002));
#561=CARTESIAN_POINT('',(-0.000866025403784438,0.0015,0.00114880296960473));
#562=CARTESIAN_POINT('',(3.06161699786839E-20,0.001,0.00114880296960473));
#563=CARTESIAN_POINT('',(-0.00099999966229943,0.000999178172143627,0.00114880296960473));
#564=CARTESIAN_POINT('',(-0.00099999966229943,0.000999178172143627,0.002));
#565=CARTESIAN_POINT('',(-0.00099999966229943,0.000999178172143627,0.));
#566=CARTESIAN_POINT('',(3.06161699786839E-20,0.001,0.));
#567=CARTESIAN_POINT('',(0.000998077807549429,0.000938026698673348,0.));
#568=CARTESIAN_POINT('',(0.000998077807549429,0.000938026698673348,0.002));
#569=CARTESIAN_POINT('',(0.000998077807549429,0.000938026698673348,0.00114880296960473));
#570=CARTESIAN_POINT('',(3.06161699786839E-20,0.001,0.00114880296960473));
#571=CARTESIAN_POINT('',(0.000866025403784438,0.0015,0.00114880296960473));
#572=CARTESIAN_POINT('',(0.000866025403784438,0.0015,0.002));
#573=CARTESIAN_POINT('',(0.000998077807549429,2.71050543121376E-18,0.002));
#574=CARTESIAN_POINT('',(0.000998077807549429,-0.000938026698673348,0.002));
#575=CARTESIAN_POINT('',(0.000998077807549429,-0.000938026698673348,0.00114880296960473));
#576=CARTESIAN_POINT('',(0.000998077807549429,-0.000938026698673348,0.));
#577=CARTESIAN_POINT('',(0.000998077807549429,2.71050543121376E-18,0.00114880296960473));
#578=CARTESIAN_POINT('',(0.000998077807549429,2.71050543121376E-18,0.));
#579=CARTESIAN_POINT('',(0.003,0.,0.002));
#580=CARTESIAN_POINT('',(0.003,0.,0.002));
#581=CARTESIAN_POINT('',(0.003,0.005,0.002));
#582=CARTESIAN_POINT('',(0.003,0.0015,0.002));
#583=CARTESIAN_POINT('',(0.003,0.0015,0.002));
#584=CARTESIAN_POINT('',(0.003,0.0015,0.00114880296960473));
#585=CARTESIAN_POINT('',(0.003,1.51788304147971E-18,0.00114880296960473));
#586=CARTESIAN_POINT('',(0.003,-0.0015,0.00114880296960473));
#587=CARTESIAN_POINT('',(0.003,-0.0015,0.002));
#588=CARTESIAN_POINT('',(0.003,-0.0015,0.002));
#589=CARTESIAN_POINT('',(0.003,0.,0.002));
#590=CARTESIAN_POINT('',(0.003,-0.005,0.002));
#591=CARTESIAN_POINT('',(0.003,-0.005,0.002));
#592=CARTESIAN_POINT('',(0.003,-0.005,0.));
#593=CARTESIAN_POINT('',(0.003,0.,0.));
#594=CARTESIAN_POINT('',(0.003,0.005,0.));
#595=CARTESIAN_POINT('',(0.003,0.005,0.002));
#596=CARTESIAN_POINT('',(-0.000999201384820598,2.7834595672039E-5,0.002));
#597=CARTESIAN_POINT('',(-0.000999201384820598,2.7834595672039E-5,0.00114880296960473));
#598=CARTESIAN_POINT('',(-0.000998403107341766,-0.000943508980799552,0.00114880296960473));
#599=CARTESIAN_POINT('',(-0.000998403107341766,-0.000943508980799552,0.002));
#600=CARTESIAN_POINT('',(-0.000998403107341766,-0.000943508980799552,0.));
#601=CARTESIAN_POINT('',(-0.000999201384820598,2.7834595672039E-5,0.));
#602=CARTESIAN_POINT('',(8.67361737988404E-19,0.,0.002));
#603=CARTESIAN_POINT('',(0.,0.005,0.002));
#604=CARTESIAN_POINT('',(0.001,0.005,0.002));
#605=CARTESIAN_POINT('',(-0.022,0.0015,0.002));
#606=CARTESIAN_POINT('',(-0.022,0.0015,0.002));
#607=CARTESIAN_POINT('',(0.,0.005,0.002));
#608=CARTESIAN_POINT('',(0.,0.005,0.002));
#609=CARTESIAN_POINT('',(0.,0.005,0.));
#610=CARTESIAN_POINT('',(4.33680868994202E-19,-0.005,0.002));
#611=CARTESIAN_POINT('',(4.33680868994202E-19,-0.005,0.));
#612=CARTESIAN_POINT('',(4.33680868994202E-19,-0.005,0.002));
#613=CARTESIAN_POINT('',(9.16779782845085E-20,-0.001,0.002));
#614=CARTESIAN_POINT('',(0.00086602540378444,-0.0015,0.002));
#615=CARTESIAN_POINT('',(0.00086602540378444,-0.0015,0.00114880296960473));
#616=CARTESIAN_POINT('',(0.000866025403784439,-0.0015,0.002));
#617=CARTESIAN_POINT('',(9.16779782845085E-20,-0.001,0.00114880296960473));
#618=CARTESIAN_POINT('',(9.16779782845085E-20,-0.001,0.));
#619=CARTESIAN_POINT('',(9.16779782845085E-20,-0.001,0.00114880296960473));
#620=CARTESIAN_POINT('',(-0.00086602540378444,-0.0015,0.00114880296960473));
#621=CARTESIAN_POINT('',(-0.00086602540378444,-0.0015,0.002));
#622=CARTESIAN_POINT('',(-0.000866025403784439,-0.0015,0.002));
#623=CARTESIAN_POINT('',(9.16779782845085E-20,-0.001,0.002));
#624=CARTESIAN_POINT('',(4.33680868994202E-19,-0.005,0.002));
#625=CARTESIAN_POINT('',(4.33680868994202E-19,-0.005,0.002));
#626=CARTESIAN_POINT('',(0.001,-0.005,0.002));
#627=CARTESIAN_POINT('',(4.33680868994202E-19,-0.005,0.));
#628=CARTESIAN_POINT('',(0.001,-0.005,0.));
#629=CARTESIAN_POINT('',(0.,0.005,0.002));
#630=CARTESIAN_POINT('',(0.,0.005,0.));
#631=CARTESIAN_POINT('',(0.001,0.005,0.));
#632=CARTESIAN_POINT('',(8.67361737988404E-19,0.,0.002));
#633=CARTESIAN_POINT('',(-0.022,-0.0015,0.002));
#634=CARTESIAN_POINT('',(-0.022,-0.0015,0.002));
#635=CARTESIAN_POINT('',(8.67361737988404E-19,0.,0.));
#636=CARTESIAN_POINT('',(-0.022,-6.50521303491303E-19,0.00114880296960473));
#637=CARTESIAN_POINT('',(-0.022,-0.0015,0.00114880296960473));
#638=CARTESIAN_POINT('',(-0.022,0.0015,0.00114880296960473));
#639=CARTESIAN_POINT('',(-0.022,-0.0015,0.002));
#640=CARTESIAN_POINT('',(-0.022,0.0015,0.002));
#641=CARTESIAN_POINT('',(-0.022,-6.50521303491303E-19,0.00114880296960473));
#642=CARTESIAN_POINT('',(-0.022,-0.0015,0.00114880296960473));
#643=CARTESIAN_POINT('',(-0.022,0.0015,0.00114880296960473));
#644=CARTESIAN_POINT('',(-0.022,0.0015,0.002));
#645=CARTESIAN_POINT('',(-0.022,-0.0015,0.002));
#646=MECHANICAL_DESIGN_GEOMETRIC_PRESENTATION_REPRESENTATION('',(#383),
#647);
#647=(
GEOMETRIC_REPRESENTATION_CONTEXT(3)
GLOBAL_UNCERTAINTY_ASSIGNED_CONTEXT((#648))
GLOBAL_UNIT_ASSIGNED_CONTEXT((#651,#650,#649))
REPRESENTATION_CONTEXT('Part 1','TOP_LEVEL_ASSEMBLY_PART')
);
#648=UNCERTAINTY_MEASURE_WITH_UNIT(LENGTH_MEASURE(1.E-8),#651,
'DISTANCE_ACCURACY_VALUE','Maximum Tolerance applied to model');
#649=(
NAMED_UNIT(*)
SI_UNIT($,.STERADIAN.)
SOLID_ANGLE_UNIT()
);
#650=(
NAMED_UNIT(*)
PLANE_ANGLE_UNIT()
SI_UNIT($,.RADIAN.)
);
#651=(
LENGTH_UNIT()
NAMED_UNIT(*)
SI_UNIT($,.METRE.)
);
#652=PRODUCT_DEFINITION_SHAPE('','',#653);
#653=PRODUCT_DEFINITION('','',#655,#654);
#654=PRODUCT_DEFINITION_CONTEXT('',#661,'design');
#655=PRODUCT_DEFINITION_FORMATION_WITH_SPECIFIED_SOURCE('','',#657,
 .NOT_KNOWN.);
#656=PRODUCT_RELATED_PRODUCT_CATEGORY('','',(#657));
#657=PRODUCT('Part 1','Part 1','Part 1',(#659));
#658=PRODUCT_CATEGORY('','');
#659=PRODUCT_CONTEXT('',#661,'mechanical');
#660=APPLICATION_PROTOCOL_DEFINITION('international standard',
'ap242_managed_model_based_3d_engineering',2020,#661);
#661=APPLICATION_CONTEXT('managed model based 3d engineering');
ENDSEC;
END-ISO-10303-21;
