ISO-10303-21;
HEADER;
/* Generated by software containing ST-Developer
 * from STEP Tools, Inc. (www.steptools.com) 
 */
/* OPTION: using custom renumber hook */

FILE_DESCRIPTION(
/* description */ ('STEP AP242 Edition 2',
'CAx-IF Rec.Pracs.---Representation and Presentation of Product Manufa
cturing Information (PMI)---4.0---2014-10-13',
'CAx-IF Rec.Pracs.---3D Tessellated Geometry---0.4---2014-09-14','2;1',
'CAx-IF Rec.Pracs.---User Defined Attributes---1.5---2016-08-15'),
/* implementation_level */ '2;1');

FILE_NAME(
/* name */ 'Assembly 1 - Part 1 (2)',
/* time_stamp */ '2026-05-21T02:21:53Z',
/* author */ (''),
/* organization */ (''),
/* preprocessor_version */ 'ST-DEVELOPER v20',
/* originating_system */ 'ONSHAPE BY PTC INC, 1.215',
/* authorisation */ '  ');

FILE_SCHEMA (('AP242_MANAGED_MODEL_BASED_3D_ENGINEERING_MIM_LF { 1 0 10303 442 3 1 4 }'));
ENDSEC;

DATA;
#10=SHAPE_REPRESENTATION_RELATIONSHIP('','',#159,#11);
#11=ADVANCED_BREP_SHAPE_REPRESENTATION('',(#157),#257);
#12=CYLINDRICAL_SURFACE('',#171,0.001);
#13=CYLINDRICAL_SURFACE('',#172,0.001);
#14=LINE('',#221,#26);
#15=LINE('',#224,#27);
#16=LINE('',#226,#28);
#17=LINE('',#228,#29);
#18=LINE('',#230,#30);
#19=LINE('',#232,#31);
#20=LINE('',#234,#32);
#21=LINE('',#238,#33);
#22=LINE('',#240,#34);
#23=LINE('',#242,#35);
#24=LINE('',#244,#36);
#25=LINE('',#245,#37);
#26=VECTOR('',#181,1.);
#27=VECTOR('',#182,1.);
#28=VECTOR('',#183,1.);
#29=VECTOR('',#184,1.);
#30=VECTOR('',#187,1.);
#31=VECTOR('',#188,1.);
#32=VECTOR('',#189,1.);
#33=VECTOR('',#194,1.);
#34=VECTOR('',#195,1.);
#35=VECTOR('',#196,1.);
#36=VECTOR('',#199,1.);
#37=VECTOR('',#200,1.);
#38=ORIENTED_EDGE('',*,*,#70,.T.);
#39=ORIENTED_EDGE('',*,*,#71,.F.);
#40=ORIENTED_EDGE('',*,*,#72,.F.);
#41=ORIENTED_EDGE('',*,*,#73,.T.);
#42=ORIENTED_EDGE('',*,*,#74,.T.);
#43=ORIENTED_EDGE('',*,*,#75,.T.);
#44=ORIENTED_EDGE('',*,*,#76,.F.);
#45=ORIENTED_EDGE('',*,*,#77,.F.);
#46=ORIENTED_EDGE('',*,*,#72,.T.);
#47=ORIENTED_EDGE('',*,*,#78,.F.);
#48=ORIENTED_EDGE('',*,*,#79,.T.);
#49=ORIENTED_EDGE('',*,*,#80,.F.);
#50=ORIENTED_EDGE('',*,*,#81,.F.);
#51=ORIENTED_EDGE('',*,*,#76,.T.);
#52=ORIENTED_EDGE('',*,*,#82,.F.);
#53=ORIENTED_EDGE('',*,*,#74,.F.);
#54=ORIENTED_EDGE('',*,*,#83,.T.);
#55=ORIENTED_EDGE('',*,*,#80,.T.);
#56=ORIENTED_EDGE('',*,*,#73,.F.);
#57=ORIENTED_EDGE('',*,*,#77,.T.);
#58=ORIENTED_EDGE('',*,*,#81,.T.);
#59=ORIENTED_EDGE('',*,*,#83,.F.);
#60=ORIENTED_EDGE('',*,*,#71,.T.);
#61=ORIENTED_EDGE('',*,*,#82,.T.);
#62=ORIENTED_EDGE('',*,*,#79,.F.);
#63=ORIENTED_EDGE('',*,*,#75,.F.);
#64=ORIENTED_EDGE('',*,*,#84,.F.);
#65=ORIENTED_EDGE('',*,*,#84,.T.);
#66=ORIENTED_EDGE('',*,*,#78,.T.);
#67=ORIENTED_EDGE('',*,*,#70,.F.);
#68=ORIENTED_EDGE('',*,*,#85,.F.);
#69=ORIENTED_EDGE('',*,*,#85,.T.);
#70=EDGE_CURVE('',#86,#86,#98,.F.);
#71=EDGE_CURVE('',#87,#88,#14,.T.);
#72=EDGE_CURVE('',#89,#87,#15,.T.);
#73=EDGE_CURVE('',#89,#90,#16,.T.);
#74=EDGE_CURVE('',#90,#88,#17,.T.);
#75=EDGE_CURVE('',#87,#91,#18,.T.);
#76=EDGE_CURVE('',#92,#91,#19,.T.);
#77=EDGE_CURVE('',#89,#92,#20,.T.);
#78=EDGE_CURVE('',#93,#93,#99,.F.);
#79=EDGE_CURVE('',#91,#94,#21,.T.);
#80=EDGE_CURVE('',#95,#94,#22,.T.);
#81=EDGE_CURVE('',#92,#95,#23,.T.);
#82=EDGE_CURVE('',#88,#94,#24,.T.);
#83=EDGE_CURVE('',#90,#95,#25,.T.);
#84=EDGE_CURVE('',#96,#96,#100,.T.);
#85=EDGE_CURVE('',#97,#97,#101,.T.);
#86=VERTEX_POINT('',#220);
#87=VERTEX_POINT('',#222);
#88=VERTEX_POINT('',#223);
#89=VERTEX_POINT('',#225);
#90=VERTEX_POINT('',#227);
#91=VERTEX_POINT('',#231);
#92=VERTEX_POINT('',#233);
#93=VERTEX_POINT('',#237);
#94=VERTEX_POINT('',#239);
#95=VERTEX_POINT('',#241);
#96=VERTEX_POINT('',#250);
#97=VERTEX_POINT('',#254);
#98=CIRCLE('',#162,0.001);
#99=CIRCLE('',#165,0.001);
#100=CIRCLE('',#170,0.001);
#101=CIRCLE('',#173,0.001);
#102=EDGE_LOOP('',(#38));
#103=EDGE_LOOP('',(#39,#40,#41,#42));
#104=EDGE_LOOP('',(#43,#44,#45,#46));
#105=EDGE_LOOP('',(#47));
#106=EDGE_LOOP('',(#48,#49,#50,#51));
#107=EDGE_LOOP('',(#52,#53,#54,#55));
#108=EDGE_LOOP('',(#56,#57,#58,#59));
#109=EDGE_LOOP('',(#60,#61,#62,#63));
#110=EDGE_LOOP('',(#64));
#111=EDGE_LOOP('',(#65));
#112=EDGE_LOOP('',(#66));
#113=EDGE_LOOP('',(#67));
#114=EDGE_LOOP('',(#68));
#115=EDGE_LOOP('',(#69));
#116=FACE_BOUND('',#102,.T.);
#117=FACE_BOUND('',#103,.T.);
#118=FACE_BOUND('',#104,.T.);
#119=FACE_BOUND('',#105,.T.);
#120=FACE_BOUND('',#106,.T.);
#121=FACE_BOUND('',#107,.T.);
#122=FACE_BOUND('',#108,.T.);
#123=FACE_BOUND('',#109,.T.);
#124=FACE_BOUND('',#110,.T.);
#125=FACE_BOUND('',#111,.T.);
#126=FACE_BOUND('',#112,.T.);
#127=FACE_BOUND('',#113,.T.);
#128=FACE_BOUND('',#114,.T.);
#129=FACE_BOUND('',#115,.T.);
#130=PLANE('',#161);
#131=PLANE('',#163);
#132=PLANE('',#164);
#133=PLANE('',#166);
#134=PLANE('',#167);
#135=PLANE('',#168);
#136=PLANE('',#169);
#137=PLANE('',#174);
#138=ADVANCED_FACE('',(#116,#117),#130,.T.);
#139=ADVANCED_FACE('',(#118),#131,.F.);
#140=ADVANCED_FACE('',(#119,#120),#132,.F.);
#141=ADVANCED_FACE('',(#121),#133,.T.);
#142=ADVANCED_FACE('',(#122),#134,.T.);
#143=ADVANCED_FACE('',(#123),#135,.F.);
#144=ADVANCED_FACE('',(#124),#136,.F.);
#145=ADVANCED_FACE('',(#125,#126),#12,.T.);
#146=ADVANCED_FACE('',(#127,#128),#13,.T.);
#147=ADVANCED_FACE('',(#129),#137,.T.);
#148=CLOSED_SHELL('',(#138,#139,#140,#141,#142,#143,#144,#145,#146,#147));
#149=STYLED_ITEM('',(#150),#157);
#150=PRESENTATION_STYLE_ASSIGNMENT((#151));
#151=SURFACE_STYLE_USAGE(.BOTH.,#152);
#152=SURFACE_SIDE_STYLE('',(#153));
#153=SURFACE_STYLE_FILL_AREA(#154);
#154=FILL_AREA_STYLE('',(#155));
#155=FILL_AREA_STYLE_COLOUR('',#156);
#156=COLOUR_RGB('',0.498039215686275,0.498039215686275,0.498039215686275);
#157=MANIFOLD_SOLID_BREP('Part 1',#148);
#158=SHAPE_DEFINITION_REPRESENTATION(#262,#159);
#159=SHAPE_REPRESENTATION('Part 1',(#160),#257);
#160=AXIS2_PLACEMENT_3D('',#217,#175,#176);
#161=AXIS2_PLACEMENT_3D('',#218,#177,#178);
#162=AXIS2_PLACEMENT_3D('',#219,#179,#180);
#163=AXIS2_PLACEMENT_3D('',#229,#185,#186);
#164=AXIS2_PLACEMENT_3D('',#235,#190,#191);
#165=AXIS2_PLACEMENT_3D('',#236,#192,#193);
#166=AXIS2_PLACEMENT_3D('',#243,#197,#198);
#167=AXIS2_PLACEMENT_3D('',#246,#201,#202);
#168=AXIS2_PLACEMENT_3D('',#247,#203,#204);
#169=AXIS2_PLACEMENT_3D('',#248,#205,#206);
#170=AXIS2_PLACEMENT_3D('',#249,#207,#208);
#171=AXIS2_PLACEMENT_3D('',#251,#209,#210);
#172=AXIS2_PLACEMENT_3D('',#252,#211,#212);
#173=AXIS2_PLACEMENT_3D('',#253,#213,#214);
#174=AXIS2_PLACEMENT_3D('',#255,#215,#216);
#175=DIRECTION('',(0.,0.,1.));
#176=DIRECTION('',(1.,0.,0.));
#177=DIRECTION('',(1.,0.,0.));
#178=DIRECTION('',(0.,0.,-1.));
#179=DIRECTION('',(1.,0.,0.));
#180=DIRECTION('',(0.,0.,-1.));
#181=DIRECTION('',(0.,-1.,0.));
#182=DIRECTION('',(0.,0.,-1.));
#183=DIRECTION('',(0.,-1.,0.));
#184=DIRECTION('',(0.,0.,-1.));
#185=DIRECTION('',(0.,-1.,0.));
#186=DIRECTION('',(0.,0.,-1.));
#187=DIRECTION('',(-1.,0.,0.));
#188=DIRECTION('',(0.,0.,-1.));
#189=DIRECTION('',(-1.,0.,0.));
#190=DIRECTION('',(1.,0.,0.));
#191=DIRECTION('',(0.,0.,-1.));
#192=DIRECTION('',(1.,0.,0.));
#193=DIRECTION('',(0.,0.,-1.));
#194=DIRECTION('',(0.,-1.,0.));
#195=DIRECTION('',(0.,0.,-1.));
#196=DIRECTION('',(0.,-1.,0.));
#197=DIRECTION('',(0.,-1.,0.));
#198=DIRECTION('',(0.,0.,-1.));
#199=DIRECTION('',(-1.,0.,0.));
#200=DIRECTION('',(-1.,0.,0.));
#201=DIRECTION('',(0.,0.,1.));
#202=DIRECTION('',(1.,0.,0.));
#203=DIRECTION('',(0.,0.,1.));
#204=DIRECTION('',(1.,0.,0.));
#205=DIRECTION('',(1.,0.,0.));
#206=DIRECTION('',(0.,1.,0.));
#207=DIRECTION('',(1.,0.,0.));
#208=DIRECTION('',(0.,0.,-1.));
#209=DIRECTION('',(-1.,0.,0.));
#210=DIRECTION('',(0.,0.,1.));
#211=DIRECTION('',(-1.,0.,0.));
#212=DIRECTION('',(0.,0.,1.));
#213=DIRECTION('',(1.,0.,0.));
#214=DIRECTION('',(0.,0.,-1.));
#215=DIRECTION('',(1.,0.,0.));
#216=DIRECTION('',(0.,1.,0.));
#217=CARTESIAN_POINT('',(0.,0.,0.));
#218=CARTESIAN_POINT('',(0.0175,0.,0.0185));
#219=CARTESIAN_POINT('',(0.0175,-6.50521303491303E-19,0.00925));
#220=CARTESIAN_POINT('',(0.0175,-6.50521303491303E-19,0.00825));
#221=CARTESIAN_POINT('',(0.0175,0.,0.));
#222=CARTESIAN_POINT('',(0.0175,0.012,0.));
#223=CARTESIAN_POINT('',(0.0175,-0.012,0.));
#224=CARTESIAN_POINT('',(0.0175,0.012,0.0185));
#225=CARTESIAN_POINT('',(0.0175,0.012,0.0185));
#226=CARTESIAN_POINT('',(0.0175,0.,0.0185));
#227=CARTESIAN_POINT('',(0.0175,-0.012,0.0185));
#228=CARTESIAN_POINT('',(0.0175,-0.012,0.0185));
#229=CARTESIAN_POINT('',(0.,0.012,0.0185));
#230=CARTESIAN_POINT('',(0.,0.012,0.));
#231=CARTESIAN_POINT('',(-0.0175,0.012,0.));
#232=CARTESIAN_POINT('',(-0.0175,0.012,0.0185));
#233=CARTESIAN_POINT('',(-0.0175,0.012,0.0185));
#234=CARTESIAN_POINT('',(0.,0.012,0.0185));
#235=CARTESIAN_POINT('',(-0.0175,0.,0.0185));
#236=CARTESIAN_POINT('',(-0.0175,-6.50521303491303E-19,0.00925));
#237=CARTESIAN_POINT('',(-0.0175,-6.50521303491303E-19,0.00825));
#238=CARTESIAN_POINT('',(-0.0175,0.,0.));
#239=CARTESIAN_POINT('',(-0.0175,-0.012,0.));
#240=CARTESIAN_POINT('',(-0.0175,-0.012,0.0185));
#241=CARTESIAN_POINT('',(-0.0175,-0.012,0.0185));
#242=CARTESIAN_POINT('',(-0.0175,0.,0.0185));
#243=CARTESIAN_POINT('',(0.,-0.012,0.0185));
#244=CARTESIAN_POINT('',(0.,-0.012,0.));
#245=CARTESIAN_POINT('',(0.,-0.012,0.0185));
#246=CARTESIAN_POINT('',(0.,0.,0.0185));
#247=CARTESIAN_POINT('',(0.,0.,0.));
#248=CARTESIAN_POINT('',(-0.0185,0.,0.00925));
#249=CARTESIAN_POINT('',(-0.0185,-6.50521303491303E-19,0.00925));
#250=CARTESIAN_POINT('',(-0.0185,-6.50521303491303E-19,0.00825));
#251=CARTESIAN_POINT('',(0.0315,-6.50521303491303E-19,0.00925));
#252=CARTESIAN_POINT('',(0.0315,-6.50521303491303E-19,0.00925));
#253=CARTESIAN_POINT('',(0.0315,-6.50521303491303E-19,0.00925));
#254=CARTESIAN_POINT('',(0.0315,-6.50521303491303E-19,0.00825));
#255=CARTESIAN_POINT('',(0.0315,0.,0.00925));
#256=MECHANICAL_DESIGN_GEOMETRIC_PRESENTATION_REPRESENTATION('',(#149),
#257);
#257=(
GEOMETRIC_REPRESENTATION_CONTEXT(3)
GLOBAL_UNCERTAINTY_ASSIGNED_CONTEXT((#258))
GLOBAL_UNIT_ASSIGNED_CONTEXT((#261,#260,#259))
REPRESENTATION_CONTEXT('Part 1','TOP_LEVEL_ASSEMBLY_PART')
);
#258=UNCERTAINTY_MEASURE_WITH_UNIT(LENGTH_MEASURE(1.E-8),#261,
'DISTANCE_ACCURACY_VALUE','Maximum Tolerance applied to model');
#259=(
NAMED_UNIT(*)
SI_UNIT($,.STERADIAN.)
SOLID_ANGLE_UNIT()
);
#260=(
NAMED_UNIT(*)
PLANE_ANGLE_UNIT()
SI_UNIT($,.RADIAN.)
);
#261=(
LENGTH_UNIT()
NAMED_UNIT(*)
SI_UNIT($,.METRE.)
);
#262=PRODUCT_DEFINITION_SHAPE('','',#263);
#263=PRODUCT_DEFINITION('','',#265,#264);
#264=PRODUCT_DEFINITION_CONTEXT('',#271,'design');
#265=PRODUCT_DEFINITION_FORMATION_WITH_SPECIFIED_SOURCE('','',#267,
 .NOT_KNOWN.);
#266=PRODUCT_RELATED_PRODUCT_CATEGORY('','',(#267));
#267=PRODUCT('Part 1','Part 1','Part 1',(#269));
#268=PRODUCT_CATEGORY('','');
#269=PRODUCT_CONTEXT('',#271,'mechanical');
#270=APPLICATION_PROTOCOL_DEFINITION('international standard',
'ap242_managed_model_based_3d_engineering',2020,#271);
#271=APPLICATION_CONTEXT('managed model based 3d engineering');
ENDSEC;
END-ISO-10303-21;
